<?xml version="1.0" encoding="utf-8"?>
<!-- Generator: Adobe Illustrator 25.2.1, SVG Export Plug-In . SVG Version: 6.00 Build 0)  -->
<svg version="1.1" id="Capa_1" xmlns="http://www.w3.org/2000/svg" xmlns:xlink="http://www.w3.org/1999/xlink" x="0px" y="0px"
	 viewBox="0 0 600 600" style="enable-background:new 0 0 600 600;" xml:space="preserve">
<style type="text/css">
	.st0{fill:#522C22;}
	.st1{fill:#FFFFFF;}
	.st2{fill:#F8A550;}
	.st3{fill:#181A25;}
	.st4{fill:#425154;}
	.st5{fill:#7A4D33;}
	.st6{fill:#333333;}
	.st7{fill:#FDFDFD;}
</style>
<circle class="st0" cx="293.74" cy="301.33" r="292"/>
<circle class="st1" cx="296.63" cy="300" r="193"/>
<path class="st0" d="M572.61,300.68c0,125.19-83.54,231.23-197.8,265.33v14.38C496.78,545.88,586.4,433.55,586.4,300.68
	S496.78,55.49,374.81,20.97v14.38C489.07,69.46,572.61,175.49,572.61,300.68z"/>
<path class="st0" d="M18.25,300.68c0-125.19,83.54-231.23,197.8-265.33V20.97C94.08,55.49,4.46,167.82,4.46,300.68
	s89.62,245.19,211.59,279.71v-14.38C101.79,531.91,18.25,425.88,18.25,300.68z"/>
<g>
	<path class="st1" d="M197.57,512.38c1.09-2.94,2.44-5.45,4.03-7.52c1.59-2.08,3.35-3.69,5.27-4.85c1.92-1.16,3.99-1.82,6.21-1.99
		c2.21-0.17,4.51,0.19,6.89,1.07c2.41,0.9,4.4,2.17,5.96,3.8c1.56,1.64,2.69,3.56,3.38,5.77c0.69,2.21,0.94,4.67,0.75,7.39
		c-0.19,2.72-0.86,5.6-1.99,8.64c-1.11,2.97-2.45,5.5-4.02,7.59c-1.57,2.08-3.34,3.7-5.3,4.84c-1.96,1.14-4.06,1.8-6.29,1.96
		c-2.23,0.17-4.56-0.2-6.97-1.1c-2.38-0.89-4.34-2.13-5.9-3.75c-1.55-1.61-2.66-3.52-3.34-5.72c-0.67-2.2-0.91-4.67-0.71-7.41
		C195.75,518.36,196.42,515.45,197.57,512.38z M206.93,514.99l-0.45,1.21c-1.8,4.84-2.59,8.77-2.36,11.81
		c0.22,3.04,1.3,4.91,3.22,5.63c4.06,1.51,7.93-2.69,11.63-12.61c0.83-2.24,1.45-4.37,1.84-6.38s0.56-3.78,0.51-5.32
		c-0.05-1.53-0.32-2.82-0.8-3.86c-0.49-1.04-1.21-1.74-2.15-2.09c-1.99-0.74-3.98-0.12-5.96,1.88
		C210.42,507.26,208.6,510.5,206.93,514.99z"/>
	<path class="st1" d="M238.84,510.79c0.23-0.41,0.41-0.74,0.55-0.98c0.14-0.24,0.34-0.54,0.59-0.92c0.51-0.74,0.96-1.2,1.33-1.38
		c0.37-0.18,1.04-0.18,1.99-0.01l2.37,0.43l2.77,0.45l2.15,0.39c-0.21,0.3-0.34,0.6-0.39,0.9c-0.06,0.33-0.03,0.66,0.11,0.99
		c-0.02,0.11,0.18,0.77,0.61,1.99l9.22,26.03l3.59-19.78c0.12-0.66,0.19-1.21,0.21-1.64s-0.05-0.78-0.21-1.03
		c-0.16-0.26-0.42-0.46-0.77-0.62c-0.35-0.16-0.83-0.33-1.44-0.52c0.21-0.3,0.39-0.58,0.55-0.84c0.16-0.26,0.31-0.46,0.46-0.63
		c0.32-0.51,0.62-0.91,0.9-1.2c0.28-0.29,0.58-0.51,0.89-0.66s0.67-0.22,1.06-0.21c0.4,0.01,0.89,0.08,1.48,0.18
		c0.37,0.07,0.64,0.14,0.82,0.21l1.6,0.29c0.29,0.05,0.6,0.11,0.91,0.17c0.31,0.06,0.75,0.12,1.3,0.18
		c-0.41,0.57-0.65,0.96-0.73,1.18c-0.37,0.58-0.74,1.4-1.1,2.47s-0.63,2.09-0.81,3.04l-4.49,24.74c-0.21,1.14-0.29,1.79-0.24,1.95
		c-0.11,0.59-0.05,1.09,0.18,1.51c0.19,0.22,0.41,0.42,0.66,0.58c0.26,0.16,0.7,0.36,1.35,0.59c-0.25,0.56-0.47,0.99-0.66,1.27
		c-0.19,0.29-0.46,0.61-0.83,0.96c-0.55,0.54-1.05,0.87-1.49,0.98c-0.44,0.11-1.12,0.1-2.04-0.03l-2.6-0.41l-1.27-0.23
		c-0.44-0.08-0.84-0.15-1.18-0.21c-0.35-0.06-0.89-0.18-1.62-0.35c0.02-0.53,0.03-0.87,0.04-1.02c0.01-0.15-0.01-0.31-0.06-0.47
		l-0.69-1.83l-9.17-25.68l-3.3,18.18c-0.14,0.77-0.22,1.4-0.23,1.89c-0.01,0.49,0.06,0.9,0.23,1.24s0.44,0.61,0.82,0.83
		c0.38,0.22,0.89,0.45,1.53,0.68c-0.11,0.17-0.2,0.31-0.28,0.43c-0.08,0.12-0.15,0.23-0.2,0.33c-0.46,0.67-0.84,1.2-1.14,1.58
		c-0.3,0.38-0.59,0.66-0.89,0.83c-0.3,0.17-0.63,0.27-0.99,0.28c-0.36,0.01-0.8-0.03-1.31-0.12l-2.16-0.33l-2.26-0.41l-1.2-0.28
		c0.55-0.73,0.97-1.36,1.25-1.88c0.34-0.62,0.68-1.57,1.03-2.86s0.65-2.62,0.9-4.02l4.07-22.43l0.38-1.75
		C241.27,512.33,240.57,511.33,238.84,510.79z"/>
	<path class="st1" d="M276.19,517.04c0.2-0.37,0.36-0.7,0.48-0.99c0.12-0.29,0.22-0.55,0.3-0.78c0.24-0.55,0.47-0.98,0.68-1.3
		c0.21-0.31,0.47-0.55,0.78-0.7c0.3-0.16,0.69-0.26,1.16-0.3c0.47-0.04,1.07-0.05,1.82-0.03l0.78,0.02c0.3,0.01,0.73,0.03,1.29,0.07
		c0.56,0.04,1.25,0.07,2.07,0.09l3.97,0.12c-0.16,0.37-0.3,0.7-0.42,1c-0.12,0.3-0.22,0.54-0.3,0.72c-0.33,0.85-0.57,1.8-0.73,2.86
		c-0.16,1.06-0.26,2.11-0.29,3.16l-0.66,21.83c-0.05,1.6-0.04,2.78,0.03,3.53c0.07,0.75,0.23,1.28,0.48,1.58
		c0.29,0.38,0.89,0.67,1.82,0.87c0.93,0.2,2.4,0.33,4.41,0.39c0.78,0.02,1.42,0.01,1.91-0.05c0.49-0.06,1.07-0.17,1.75-0.34
		c0.64-0.17,1.2-0.38,1.67-0.65c0.47-0.27,1.06-0.67,1.75-1.21c-0.2,0.52-0.38,0.97-0.52,1.36c-0.14,0.39-0.27,0.74-0.4,1.05
		c-0.12,0.31-0.26,0.61-0.42,0.88c-0.16,0.28-0.32,0.58-0.48,0.91c-0.63,1.18-1.3,1.96-2,2.35c-0.7,0.39-1.76,0.56-3.18,0.52
		c-0.26-0.01-0.51-0.02-0.75-0.05c-0.24-0.03-0.49-0.04-0.75-0.05c-2.12-0.18-3.45-0.27-3.97-0.29c-0.86-0.1-1.84-0.16-2.96-0.17
		c-1.12-0.01-2.15-0.04-3.08-0.07c-0.63-0.02-1.18-0.04-1.62-0.05s-0.88-0.02-1.29-0.01c-0.41,0.01-0.86,0.02-1.35,0.04
		c-0.49,0.02-1.07,0.04-1.74,0.06c0.23-0.33,0.43-0.62,0.59-0.88c0.16-0.26,0.28-0.48,0.36-0.66c0.32-0.62,0.59-1.6,0.82-2.92
		c0.23-1.32,0.37-2.82,0.42-4.5l0.72-23.9c0.03-1.08,0-1.79-0.1-2.13c-0.1-0.34-0.35-0.65-0.76-0.92c-0.22-0.19-0.47-0.31-0.75-0.36
		c-0.28-0.04-0.74-0.08-1.37-0.1L276.19,517.04z"/>
	<path class="st1" d="M304.48,517.47l0.69-2.02c0.19-0.5,0.36-0.91,0.53-1.22c0.16-0.31,0.36-0.56,0.59-0.75
		c0.23-0.19,0.52-0.32,0.87-0.4c0.35-0.08,0.78-0.14,1.31-0.18l1.45-0.11l3.29-0.25l3.69-0.28c-0.25,0.73-0.42,1.37-0.53,1.92
		c-0.11,0.55-0.19,1.12-0.24,1.7c-0.05,0.58-0.05,1.27-0.01,2.05s0.1,1.75,0.19,2.91l1.8,23.9c0.1,1.3,0.35,2.19,0.76,2.67
		c0.41,0.47,1.16,0.71,2.24,0.7c-0.15,0.46-0.28,0.86-0.39,1.21s-0.19,0.63-0.24,0.86c-0.18,0.54-0.36,0.97-0.52,1.3
		c-0.16,0.33-0.39,0.58-0.67,0.75c-0.29,0.17-0.66,0.29-1.12,0.37c-0.46,0.07-1.08,0.14-1.87,0.2l-0.67,0.05l-3.41,0.26l-3.41,0.26
		c0.2-0.84,0.35-1.56,0.45-2.17c0.1-0.61,0.17-1.22,0.2-1.84s0.02-1.3-0.01-2.05c-0.04-0.75-0.1-1.68-0.18-2.79l-1.69-22.45
		c-0.08-1-0.17-1.82-0.3-2.45c-0.12-0.63-0.29-1.1-0.5-1.42c-0.21-0.32-0.5-0.53-0.86-0.64
		C305.55,517.46,305.07,517.43,304.48,517.47z"/>
	<path class="st1" d="M323.49,516.15c0.05-0.47,0.1-0.84,0.14-1.12c0.04-0.27,0.11-0.63,0.21-1.07c0.2-0.88,0.44-1.47,0.72-1.78
		c0.28-0.31,0.89-0.56,1.84-0.76l2.36-0.49l2.73-0.63l2.14-0.45c-0.08,0.36-0.09,0.69-0.02,0.98c0.07,0.33,0.22,0.62,0.47,0.87
		c0.02,0.11,0.46,0.65,1.31,1.61l18.33,20.66l-4.11-19.68c-0.14-0.66-0.28-1.19-0.42-1.6c-0.14-0.41-0.34-0.7-0.58-0.88
		c-0.25-0.18-0.56-0.27-0.95-0.29s-0.89,0.01-1.53,0.06c0.08-0.36,0.14-0.69,0.19-0.99c0.05-0.3,0.12-0.55,0.19-0.75
		c0.1-0.59,0.23-1.08,0.38-1.45c0.15-0.37,0.34-0.69,0.57-0.95c0.23-0.26,0.53-0.45,0.91-0.59c0.37-0.13,0.85-0.26,1.44-0.38
		c0.37-0.08,0.64-0.12,0.83-0.12l1.59-0.33c0.29-0.06,0.59-0.12,0.9-0.19c0.31-0.07,0.74-0.17,1.28-0.32
		c-0.16,0.68-0.24,1.14-0.23,1.36c-0.13,0.68-0.16,1.58-0.09,2.71c0.06,1.13,0.2,2.17,0.39,3.12l5.14,24.61
		c0.24,1.13,0.41,1.76,0.51,1.9c0.12,0.58,0.37,1.03,0.74,1.33c0.26,0.14,0.54,0.23,0.83,0.28c0.3,0.05,0.79,0.07,1.47,0.04
		c-0.02,0.62-0.07,1.09-0.13,1.43c-0.06,0.34-0.2,0.74-0.41,1.2c-0.31,0.71-0.65,1.2-1.01,1.47c-0.36,0.27-1,0.51-1.91,0.74
		l-2.56,0.59l-1.26,0.26c-0.44,0.09-0.83,0.17-1.18,0.25c-0.35,0.07-0.89,0.17-1.63,0.28c-0.18-0.5-0.29-0.82-0.34-0.96
		c-0.05-0.14-0.12-0.28-0.23-0.41l-1.33-1.44l-18.15-20.35l3.78,18.09c0.16,0.77,0.33,1.38,0.5,1.84c0.17,0.46,0.4,0.81,0.68,1.06
		c0.28,0.25,0.64,0.4,1.07,0.46c0.43,0.06,0.99,0.08,1.67,0.05c-0.04,0.2-0.07,0.37-0.09,0.51c-0.03,0.14-0.05,0.27-0.06,0.38
		c-0.18,0.8-0.33,1.43-0.46,1.9c-0.13,0.47-0.3,0.84-0.51,1.11s-0.48,0.48-0.81,0.63s-0.75,0.27-1.27,0.38l-2.13,0.5l-2.25,0.47
		l-1.22,0.2c0.23-0.89,0.38-1.62,0.45-2.21c0.08-0.7,0.04-1.71-0.12-3.04c-0.16-1.32-0.39-2.67-0.68-4.06l-4.66-22.31l-0.31-1.77
		C326.32,516.67,325.29,516,323.49,516.15z"/>
	<path class="st1" d="M360.64,508.14c-0.01-0.44-0.03-0.82-0.05-1.15c-0.03-0.33-0.03-0.62,0-0.87c-0.05-0.54-0.04-0.99,0.02-1.36
		c0.06-0.36,0.19-0.67,0.39-0.93c0.2-0.26,0.5-0.49,0.9-0.71c0.4-0.21,0.95-0.45,1.64-0.72l21.26-8.22l0.12,1.09
		c0.04,0.31,0.07,0.6,0.1,0.89c0.03,0.29,0.06,0.59,0.1,0.89c0.03,0.39,0.03,0.72-0.01,0.99c-0.04,0.27-0.11,0.52-0.22,0.75
		s-0.27,0.46-0.47,0.72c-0.2,0.26-0.46,0.55-0.78,0.87l-1.71,1.8l-1.29,1.33c0-0.72-0.06-1.24-0.18-1.55
		c-0.15-0.38-0.4-0.58-0.76-0.58c-0.36,0-1.06,0.2-2.11,0.6l-3.35,1.29c-0.7,0.27-1.18,0.49-1.46,0.65s-0.46,0.39-0.55,0.66
		c-0.15,0.34-0.21,0.63-0.17,0.88c0.04,0.25,0.2,0.76,0.5,1.53l2.84,7.41l6.48-2.49c0.63-0.24,1.13-0.44,1.5-0.61s0.71-0.32,1-0.45
		c0.29-0.13,0.53-0.27,0.74-0.42c0.2-0.15,0.42-0.33,0.66-0.56c0.02,0.35,0.03,0.66,0.05,0.91c0.02,0.25,0.02,0.46,0,0.63
		c-0.03,0.45-0.02,0.83,0.02,1.13c0.04,0.31,0.04,0.52,0.01,0.66c-0.02,0.69-0.1,1.2-0.25,1.54c-0.11,0.24-0.27,0.45-0.48,0.63
		c-0.21,0.18-0.43,0.34-0.66,0.46l-2.04,0.78l-5.38,2.07l3.73,9.71l0.72,1.89c0.28,0.74,0.68,1.26,1.21,1.58
		c0.21,0.12,0.41,0.21,0.62,0.28c0.2,0.06,0.44,0.07,0.7,0.03c0.26-0.04,0.59-0.13,0.98-0.26c0.39-0.13,0.88-0.31,1.47-0.54
		l6.17-2.37c1.18-0.45,2.14-0.88,2.87-1.26c0.73-0.39,1.49-0.91,2.28-1.56c0.12,1.04,0.18,1.83,0.2,2.38
		c0.01,0.56,0.05,1.16,0.1,1.82c-0.03,0.33-0.06,0.62-0.09,0.85c-0.03,0.23-0.07,0.4-0.11,0.49c-0.24,0.53-0.67,0.92-1.3,1.16
		l-1.93,0.74l-19.87,7.63c0.03-0.45,0.03-0.85,0.02-1.21c-0.02-0.35-0.03-0.65-0.04-0.88c-0.03-0.39-0.09-0.83-0.18-1.34
		c-0.09-0.5-0.2-1.02-0.33-1.55c-0.12-0.53-0.26-1.06-0.4-1.59c-0.14-0.53-0.29-0.98-0.43-1.36l-8.23-21.43l-0.8-2.09
		c-0.7-1.81-1.92-2.38-3.66-1.71L360.64,508.14z"/>
</g>
<g>
	<path class="st1" d="M111.77,115.95c0.14,0.51,0.3,0.97,0.49,1.38c0.18,0.41,0.36,0.81,0.52,1.21c0.38,0.9,0.64,1.66,0.77,2.31
		c0.14,0.64,0.17,1.27,0.1,1.88c-0.07,0.61-0.28,1.24-0.61,1.89c-0.33,0.65-0.8,1.4-1.41,2.27l-1.82,2.61
		c-0.22-0.84-0.43-1.45-0.63-1.84c-0.2-0.39-0.53-0.76-0.99-1.12c-0.79-0.62-1.68-0.77-2.66-0.45c-0.98,0.31-1.9,1.03-2.78,2.16
		c-1.2,1.55-1.89,3.32-2.06,5.33c-0.18,2,0.19,4.06,1.1,6.17c0.92,2.19,2.31,4.31,4.16,6.38c1.85,2.07,4.35,4.32,7.49,6.75
		c5.87,4.54,10.88,7.29,15.04,8.24c4.16,0.95,7.31,0.04,9.45-2.72c0.45-0.59,0.75-1.18,0.88-1.78s0.11-1.14-0.07-1.61
		c-0.11-0.55-0.49-1.15-1.14-1.78c-0.65-0.64-1.84-1.62-3.56-2.96c-0.8-0.62-1.46-1.11-1.98-1.48c-0.52-0.37-0.97-0.68-1.34-0.94
		c-0.37-0.25-0.69-0.43-0.95-0.53s-0.54-0.17-0.85-0.21c-0.85-0.12-1.68,0.09-2.5,0.62c-0.82,0.54-1.73,1.45-2.74,2.75l-0.19,0.25
		c-0.51-0.73-0.93-1.35-1.26-1.88c-0.33-0.52-0.57-0.96-0.73-1.32c-0.16-0.36-0.28-0.68-0.35-0.97c-0.08-0.29-0.14-0.62-0.18-0.99
		c0.01-0.53,0.12-1.01,0.32-1.46c0.21-0.44,0.57-1,1.09-1.67l1.31-1.69c0.3-0.3,0.64-0.69,1.01-1.17c0.37-0.48,0.8-1.04,1.29-1.66
		c0.94-1.21,1.79-2.31,2.55-3.29c0.76-0.98,1.7-2.28,2.81-3.89l0.7,1.04c0.39,0.71,0.73,1.27,1.01,1.68s0.56,0.81,0.85,1.16
		c0.29,0.36,0.63,0.7,1.01,1.03c0.38,0.33,0.86,0.72,1.45,1.17l9.03,7c0.84,0.65,1.49,1.25,1.96,1.82c0.47,0.56,0.85,1.13,1.15,1.69
		c0.37,0.82,0.52,1.84,0.44,3.05c-0.07,1.22-0.35,2.52-0.83,3.92c-0.48,1.4-1.13,2.86-1.93,4.37c-0.81,1.52-1.76,2.99-2.86,4.41
		c-4.8,6.19-10.46,9.36-17,9.51c-6.54,0.15-13.6-2.7-21.17-8.57c-4.31-3.34-7.54-6.68-9.7-10.02c-2.16-3.34-3.46-7.03-3.89-11.04
		c-0.35-3.08-0.14-5.95,0.63-8.59c0.78-2.64,2.17-5.26,4.18-7.85c1.59-2.05,3.39-3.86,5.42-5.44c0.82-0.63,1.57-1.18,2.22-1.64
		c0.66-0.46,1.37-0.88,2.13-1.26c0.76-0.38,1.59-0.74,2.49-1.08C109.53,116.74,110.58,116.36,111.77,115.95z"/>
	<path class="st1" d="M155.98,145.56c-0.01-0.53-0.05-0.99-0.11-1.37c-0.07-0.38-0.1-0.71-0.11-0.97c-0.11-0.65-0.24-1.27-0.39-1.86
		c-0.15-0.58-0.4-1.33-0.74-2.24c-0.34-0.91-0.8-2.08-1.38-3.51c-0.58-1.43-1.36-3.3-2.36-5.61c-0.95-2.08-2.17-5.05-3.65-8.93
		c-1.19-2.9-2.16-5.37-2.93-7.43c-0.76-2.05-1.41-3.81-1.95-5.27c-0.54-1.46-0.98-2.71-1.32-3.75c-0.34-1.04-0.64-2.03-0.91-2.97
		c-0.23-0.89-0.43-1.63-0.6-2.19c-0.18-0.57-0.33-1.03-0.48-1.39c-0.14-0.36-0.26-0.63-0.35-0.83c-0.09-0.2-0.2-0.38-0.33-0.55
		c-0.42-0.54-0.9-0.77-1.44-0.69c-0.54,0.08-1.34,0.48-2.41,1.17l-0.32-1.06l-0.55-1.48c-0.32-0.76-0.49-1.4-0.5-1.93
		c-0.01-0.53,0.13-1.06,0.42-1.59c0.29-0.53,0.77-1.08,1.42-1.66c0.66-0.58,1.55-1.31,2.67-2.19l0.94-0.73
		c0.58-0.46,1.22-0.93,1.9-1.43c0.68-0.5,1.42-1.06,2.21-1.68l2.44-1.9c1.55,0.87,2.9,1.63,4.04,2.28c1.14,0.65,2.22,1.28,3.24,1.9
		c1.02,0.62,2.02,1.26,3.01,1.93c0.99,0.67,2.11,1.42,3.37,2.25c1.29,0.88,2.61,1.8,3.98,2.78c1.37,0.98,2.81,2.05,4.32,3.22
		c1.42,1.04,2.74,2.05,3.98,3.04c1.24,0.98,2.45,1.93,3.63,2.85c1.19,0.92,2.37,1.88,3.55,2.87c1.18,0.99,2.43,2.04,3.77,3.15
		c1.77,1.5,3.13,2.55,4.08,3.16c0.94,0.61,1.77,0.9,2.49,0.87c0.38-0.03,0.76-0.14,1.14-0.34c0.38-0.2,0.96-0.53,1.73-1l0.27,1
		l0.64,2.11c0.41,1.22,0.5,2.14,0.25,2.77c-0.25,0.63-0.91,1.37-2,2.21l-3.25,2.54c-0.37,0.22-0.88,0.61-1.56,1.16
		c-0.67,0.56-1.55,1.26-2.63,2.11c-0.38,0.29-0.84,0.66-1.41,1.1c-0.56,0.44-1.2,0.97-1.92,1.6c-0.22-0.97-0.43-1.79-0.63-2.48
		c-0.2-0.68-0.42-1.3-0.68-1.84c-0.25-0.54-0.52-1.03-0.81-1.48c-0.28-0.45-0.62-0.92-1.01-1.43c-0.62-0.79-1.34-1.57-2.17-2.33
		c-0.83-0.76-2.19-1.84-4.09-3.25l-13.7,10.69c0.42,1.48,0.9,2.81,1.43,3.96c0.54,1.16,1.06,2.07,1.58,2.74
		c0.59,0.75,1.24,1.1,1.96,1.03c0.72-0.06,1.67-0.51,2.82-1.35l0.3,0.77c0.4,1.03,0.68,1.92,0.83,2.67
		c0.15,0.75,0.17,1.41,0.07,1.96c-0.11,0.55-0.35,1.06-0.73,1.52c-0.38,0.46-0.9,0.95-1.57,1.47l-2.38,1.85l-3.25,2.54
		L155.98,145.56z M151.71,113.14l2.23,5.43l11.14-8.69l-3.99-3.05c-2.17-1.67-3.92-2.98-5.24-3.94c-1.32-0.96-2.42-1.75-3.31-2.37
		c-0.89-0.62-1.68-1.13-2.39-1.52c-0.71-0.39-1.53-0.89-2.48-1.5c-0.18-0.06-0.41-0.18-0.69-0.37c-0.28-0.19-0.63-0.38-1.06-0.59
		l0.59,1.66l2.64,7.64L151.71,113.14z"/>
	<path class="st1" d="M175.66,68.38c0.02-0.59,0.01-1.11-0.03-1.56c-0.04-0.45-0.07-0.84-0.11-1.17c-0.05-0.85-0.04-1.54,0.04-2.08
		c0.07-0.53,0.25-0.99,0.53-1.39c0.28-0.39,0.71-0.77,1.27-1.12c0.56-0.35,1.33-0.75,2.29-1.2l1.01-0.47
		c0.38-0.18,0.94-0.42,1.67-0.74c0.73-0.31,1.62-0.71,2.68-1.21l5.1-2.38c0.03,0.57,0.07,1.08,0.1,1.53
		c0.04,0.45,0.06,0.82,0.08,1.1c0.13,1.28,0.43,2.64,0.9,4.09c0.47,1.44,1.02,2.84,1.65,4.18L205.94,94
		c0.96,2.06,1.73,3.54,2.3,4.45c0.57,0.9,1.11,1.47,1.62,1.69c0.61,0.3,1.56,0.28,2.86-0.07c1.3-0.34,3.24-1.12,5.83-2.33
		c1.01-0.47,1.8-0.9,2.38-1.29c0.58-0.39,1.24-0.9,1.99-1.54c0.7-0.62,1.27-1.25,1.7-1.89c0.43-0.64,0.91-1.52,1.44-2.64
		c0.07,0.78,0.14,1.47,0.21,2.05c0.07,0.58,0.12,1.11,0.17,1.58c0.05,0.47,0.06,0.94,0.03,1.39c-0.02,0.45-0.03,0.93-0.02,1.46
		c-0.05,1.89-0.4,3.31-1.04,4.25c-0.64,0.94-1.87,1.84-3.69,2.69c-0.34,0.16-0.67,0.3-0.99,0.42c-0.32,0.12-0.65,0.26-0.99,0.42
		c-2.8,1.13-4.53,1.86-5.21,2.17c-1.15,0.42-2.43,0.98-3.86,1.67c-1.43,0.7-2.74,1.32-3.94,1.88c-0.82,0.38-1.51,0.71-2.08,0.97
		c-0.58,0.27-1.12,0.54-1.64,0.81c-0.52,0.27-1.08,0.57-1.67,0.91c-0.6,0.34-1.32,0.73-2.16,1.19c0.09-0.57,0.15-1.06,0.18-1.49
		c0.03-0.42,0.04-0.78,0.03-1.06c0-0.99-0.27-2.4-0.83-4.21c-0.56-1.81-1.34-3.8-2.34-5.96l-14.34-30.7
		c-0.65-1.39-1.15-2.27-1.49-2.63c-0.35-0.36-0.86-0.59-1.54-0.68c-0.4-0.1-0.79-0.1-1.17,0.02c-0.38,0.12-0.98,0.37-1.79,0.75
		L175.66,68.38z"/>
	<path class="st1" d="M228.68,99.31c0.22-0.48,0.38-0.91,0.49-1.29c0.11-0.38,0.21-0.68,0.32-0.92c0.18-0.64,0.33-1.25,0.44-1.85
		s0.21-1.37,0.29-2.34c0.08-0.97,0.17-2.22,0.26-3.76c0.09-1.54,0.19-3.56,0.28-6.08c0.04-2.28,0.22-5.49,0.55-9.63
		c0.17-3.13,0.36-5.78,0.55-7.97c0.19-2.18,0.36-4.05,0.51-5.6c0.14-1.55,0.29-2.87,0.42-3.95c0.14-1.09,0.29-2.11,0.46-3.07
		c0.18-0.91,0.31-1.65,0.4-2.24c0.09-0.59,0.14-1.07,0.16-1.46c0.02-0.38,0.04-0.69,0.04-0.9c0.01-0.22-0.01-0.43-0.06-0.64
		c-0.15-0.67-0.48-1.08-1.01-1.24c-0.52-0.15-1.41-0.15-2.68,0.02l0.16-1.09l0.14-1.57c0.03-0.82,0.16-1.47,0.38-1.95
		c0.22-0.48,0.57-0.9,1.06-1.25c0.49-0.35,1.16-0.65,2-0.89c0.84-0.24,1.96-0.52,3.35-0.82l1.16-0.26c0.72-0.16,1.5-0.32,2.33-0.48
		c0.83-0.16,1.74-0.34,2.72-0.56l3.02-0.67c1.03,1.45,1.92,2.72,2.67,3.8c0.75,1.08,1.46,2.12,2.11,3.11c0.65,0.99,1.28,2,1.89,3.03
		c0.61,1.03,1.3,2.19,2.07,3.48c0.79,1.34,1.58,2.75,2.4,4.22c0.81,1.47,1.65,3.06,2.52,4.77c0.83,1.55,1.59,3.03,2.29,4.45
		c0.69,1.42,1.38,2.8,2.05,4.14c0.68,1.34,1.33,2.71,1.97,4.12c0.64,1.4,1.32,2.89,2.05,4.46c0.96,2.12,1.73,3.65,2.32,4.61
		c0.59,0.95,1.21,1.57,1.88,1.86c0.36,0.14,0.75,0.2,1.18,0.19c0.43-0.01,1.1-0.07,2-0.16l-0.18,1.02l-0.33,2.19
		c-0.15,1.28-0.47,2.15-0.97,2.61c-0.49,0.46-1.41,0.84-2.75,1.14l-4.03,0.89c-0.43,0.04-1.06,0.17-1.91,0.38
		c-0.85,0.22-1.94,0.47-3.28,0.77c-0.46,0.1-1.05,0.23-1.74,0.39c-0.7,0.15-1.5,0.36-2.42,0.62c0.22-0.97,0.39-1.8,0.5-2.51
		c0.11-0.7,0.17-1.35,0.18-1.95c0-0.6-0.03-1.16-0.09-1.69c-0.06-0.53-0.16-1.1-0.3-1.72c-0.22-0.98-0.54-1.99-0.96-3.04
		c-0.42-1.04-1.19-2.61-2.3-4.69l-16.97,3.76c-0.26,1.52-0.4,2.92-0.41,4.2c-0.02,1.28,0.07,2.33,0.25,3.15
		c0.21,0.93,0.65,1.52,1.33,1.78c0.68,0.26,1.72,0.26,3.13,0l-0.06,0.83c-0.08,1.1-0.22,2.03-0.4,2.77
		c-0.19,0.75-0.45,1.35-0.78,1.8c-0.33,0.45-0.77,0.81-1.31,1.06c-0.54,0.26-1.22,0.47-2.05,0.66l-2.94,0.65l-4.03,0.89
		L228.68,99.31z M238.77,68.21l-0.33,5.86l13.79-3.06l-2.29-4.47c-1.25-2.44-2.26-4.38-3.04-5.81c-0.78-1.43-1.43-2.62-1.97-3.56
		c-0.53-0.94-1.04-1.74-1.51-2.4c-0.47-0.66-1-1.46-1.59-2.42c-0.14-0.13-0.29-0.34-0.46-0.63c-0.17-0.29-0.41-0.62-0.71-0.99
		l-0.18,1.75l-0.9,8.03L238.77,68.21z"/>
	<path class="st1" d="M304.73,82.35c0.53-0.67,0.98-1.27,1.35-1.8c0.37-0.53,0.72-0.96,1.04-1.29c0.67-0.92,1.23-1.63,1.68-2.16
		c0.45-0.52,0.92-0.91,1.42-1.15c0.49-0.25,1.08-0.37,1.78-0.38c0.69,0,1.6,0.03,2.71,0.08c0.26,0.04,0.58,0.07,0.95,0.1
		c0.37,0.03,0.77,0.05,1.19,0.06c-0.48,0.68-0.8,1.22-0.96,1.62c-0.17,0.4-0.29,0.84-0.36,1.31c-0.26,1.73,0.28,3.25,1.61,4.57
		c1.33,1.32,3.22,2.16,5.68,2.53c2.25,0.33,4.19,0,5.81-1.02c1.62-1.01,2.57-2.44,2.84-4.27c0.17-1.15,0.04-2.25-0.39-3.31
		c-0.43-1.05-1.24-2.28-2.42-3.69l-3.28-3.86c-1.87-2.2-3.43-4.08-4.7-5.63c-1.27-1.55-2.3-2.87-3.1-3.95
		c-2.05-2.76-3.42-5.16-4.1-7.19c-0.69-2.03-0.88-4.04-0.59-6.02c0.33-2.2,1.09-4.17,2.29-5.92c1.2-1.75,2.71-3.18,4.53-4.3
		c1.82-1.12,3.92-1.89,6.28-2.31c2.36-0.42,4.88-0.44,7.55-0.04c1.41,0.21,2.71,0.48,3.89,0.82c1.18,0.34,2.37,0.81,3.56,1.41
		c1.19,0.61,2.43,1.37,3.71,2.28c1.28,0.91,2.73,2.03,4.36,3.34c-0.82,1.16-1.53,2.09-2.14,2.77c-0.61,0.69-1.24,1.22-1.88,1.6
		c-0.65,0.38-1.4,0.66-2.25,0.83c-0.85,0.17-1.96,0.31-3.31,0.43c-0.27,0.01-0.56,0.02-0.89,0.03c-0.32,0.01-0.73,0.03-1.21,0.06
		c0.5-0.51,0.86-0.95,1.08-1.32c0.22-0.37,0.35-0.71,0.39-1.02c0.16-1.1-0.35-2.14-1.54-3.12c-1.19-0.98-2.73-1.61-4.61-1.89
		c-2.04-0.3-3.75-0.06-5.12,0.72c-1.38,0.79-2.17,1.94-2.4,3.45c-0.18,1.2,0.12,2.54,0.88,4.02s2.12,3.3,4.04,5.46l4.11,4.7
		c0.68,0.8,1.4,1.64,2.15,2.53c0.75,0.89,1.46,1.76,2.14,2.6c0.68,0.85,1.28,1.64,1.82,2.36s0.93,1.29,1.19,1.7
		c1,1.54,1.71,3.32,2.13,5.33c0.42,2.02,0.49,3.99,0.2,5.93c-0.35,2.35-1.31,4.65-2.87,6.87c-3.86,5.47-9.61,7.63-17.25,6.5
		c-2.46-0.37-4.7-0.93-6.73-1.68c-2.03-0.76-4.13-1.89-6.31-3.39c-0.69-0.42-1.27-0.82-1.75-1.18c-0.48-0.37-0.93-0.74-1.36-1.12
		c-0.42-0.38-0.86-0.81-1.29-1.28C305.84,83.6,305.33,83.03,304.73,82.35z"/>
	<path class="st1" d="M366.99,47.64c0.62-0.54,1.14-1.02,1.53-1.43c0.66-0.76,1.2-1.34,1.62-1.74c0.42-0.4,0.84-0.65,1.26-0.77
		c0.42-0.11,0.87-0.1,1.36,0.04c0.48,0.14,1.12,0.38,1.9,0.7c0.24,0.1,0.43,0.19,0.57,0.28c0.14,0.09,0.33,0.18,0.57,0.28
		c0.24,0.1,0.77,0.31,1.59,0.61c0.82,0.31,1.93,0.75,3.35,1.34l5.06,2.09c-0.73,0.79-1.35,1.5-1.87,2.15
		c-0.52,0.64-1,1.32-1.44,2.03c-0.44,0.71-0.85,1.47-1.24,2.28c-0.39,0.81-0.81,1.76-1.25,2.83l-4.87,11.81l13.57,5.6l4.6-11.15
		c0.44-1.08,0.75-1.95,0.91-2.63c0.16-0.68,0.2-1.25,0.11-1.72c-0.09-0.47-0.34-0.87-0.75-1.21c-0.4-0.34-0.98-0.72-1.72-1.14
		c0.71-0.74,1.28-1.33,1.72-1.78c0.44-0.45,0.8-0.79,1.06-1.02c0.27-0.23,0.51-0.4,0.73-0.52c0.22-0.11,0.46-0.22,0.74-0.34
		c0.42-0.17,0.86-0.22,1.34-0.13c0.48,0.08,1.18,0.32,2.11,0.7l1.76,0.73l4.11,1.7c0.63,0.26,1.4,0.56,2.29,0.9
		c0.89,0.34,1.96,0.8,3.21,1.37c-0.43,0.34-0.75,0.65-0.98,0.93c-0.23,0.28-0.44,0.52-0.64,0.72c-0.75,0.84-1.57,2.06-2.46,3.66
		c-0.89,1.61-1.65,3.17-2.28,4.68l-12.68,30.73l-1.12,2.71c-0.2,0.49-0.31,0.96-0.33,1.41c-0.01,0.45,0.04,0.87,0.16,1.27
		c0.17,0.41,0.44,0.77,0.81,1.06c0.36,0.29,0.95,0.64,1.76,1.03c-0.31,0.33-0.55,0.62-0.74,0.85c-0.18,0.24-0.34,0.45-0.47,0.62
		c-0.64,0.71-1.19,1.25-1.66,1.63c-0.47,0.38-0.96,0.62-1.46,0.73c-0.5,0.11-1.07,0.09-1.69-0.06c-0.63-0.15-1.41-0.41-2.33-0.79
		c-0.39-0.16-0.67-0.31-0.85-0.44l-5.75-2.29c-0.44-0.18-1.01-0.43-1.71-0.75c-0.7-0.32-1.51-0.67-2.44-1.05
		c0.71-0.74,1.32-1.4,1.85-1.98c0.53-0.58,0.99-1.22,1.39-1.92c0.4-0.69,0.81-1.47,1.22-2.33c0.41-0.86,0.89-1.95,1.44-3.27
		l6.11-14.82l-13.5-5.57l-5.81,14.08c-0.48,1.17-0.84,2.13-1.05,2.87c-0.22,0.74-0.28,1.37-0.18,1.9c0.1,0.53,0.35,0.96,0.75,1.3
		c0.4,0.34,0.98,0.72,1.72,1.14c-0.24,0.3-0.48,0.56-0.71,0.78c-0.23,0.22-0.43,0.38-0.59,0.49c-0.64,0.71-1.18,1.27-1.64,1.68
		c-0.46,0.41-0.92,0.67-1.39,0.76c-0.47,0.09-0.99,0.07-1.55-0.08c-0.57-0.15-1.27-0.39-2.1-0.74l-1.69-0.7l-5.28-2.18
		c-0.44-0.18-0.97-0.42-1.6-0.7c-0.63-0.29-1.35-0.6-2.19-0.94c0.44-0.51,0.82-0.95,1.15-1.33c0.33-0.38,0.6-0.7,0.82-0.95
		c0.67-0.93,1.31-1.99,1.92-3.2c0.61-1.21,1.28-2.69,2.01-4.45l12.98-31.47l1.08-2.21c0.5-0.94,0.57-1.75,0.2-2.45
		C369.07,49.2,368.25,48.45,366.99,47.64z"/>
	<path class="st1" d="M414.73,93.15c2.74-3.5,5.63-6.31,8.67-8.43c3.04-2.12,6.11-3.55,9.2-4.28c3.1-0.73,6.17-0.74,9.24-0.02
		c3.06,0.72,6.01,2.19,8.84,4.41c2.87,2.25,5.01,4.82,6.42,7.7c1.4,2.88,2.1,5.96,2.08,9.24c-0.02,3.28-0.74,6.71-2.17,10.29
		c-1.43,3.58-3.57,7.19-6.41,10.81c-2.77,3.54-5.67,6.38-8.69,8.51c-3.02,2.14-6.1,3.55-9.23,4.25c-3.14,0.7-6.25,0.68-9.33-0.06
		c-3.09-0.74-6.06-2.23-8.94-4.49c-2.83-2.22-4.95-4.75-6.34-7.6c-1.4-2.84-2.08-5.9-2.04-9.16c0.04-3.26,0.78-6.7,2.23-10.3
		C409.7,100.45,411.86,96.81,414.73,93.15z M426.24,100.71l-1.13,1.44c-4.51,5.75-7.27,10.73-8.27,14.93c-1,4.2-0.36,7.19,1.93,8.99
		c4.83,3.79,11.87-0.22,21.12-12.02c2.09-2.67,3.83-5.28,5.23-7.82c1.39-2.55,2.38-4.86,2.98-6.95c0.6-2.09,0.79-3.94,0.58-5.56
		c-0.21-1.62-0.88-2.86-2-3.74c-2.37-1.86-5.33-1.87-8.85-0.02C434.29,91.78,430.43,95.37,426.24,100.71z"/>
	<path class="st1" d="M477.96,119.38c0.32-0.11,0.58-0.2,0.8-0.26c0.22-0.06,0.38-0.11,0.5-0.13c0.43-0.13,0.8-0.23,1.12-0.3
		c0.31-0.07,0.6-0.15,0.88-0.22c1.13-0.26,2.03-0.29,2.7-0.06c0.67,0.22,1.5,0.81,2.5,1.78c1.44,1.36,2.94,2.94,4.51,4.73
		c1.57,1.79,3.12,3.69,4.66,5.71c4.2,5.5,6.14,10.64,5.83,15.42c-0.31,4.78-2.88,9.02-7.71,12.71c-2.19,1.67-4.46,2.86-6.82,3.56
		c-2.36,0.7-4.68,0.95-6.97,0.74c-2.29-0.21-4.46-0.87-6.51-1.99s-3.85-2.69-5.38-4.7c-1.57-2.05-2.63-4.1-3.18-6.13l-7.76,5.92
		c-1.01,0.77-1.8,1.44-2.36,2c-0.57,0.56-0.93,1.09-1.09,1.58c-0.16,0.49-0.14,0.98,0.08,1.47c0.21,0.5,0.57,1.08,1.08,1.75
		c-0.62,0.14-1.18,0.29-1.67,0.43c-0.49,0.14-0.92,0.28-1.27,0.42c-0.75,0.24-1.37,0.4-1.88,0.49c-0.5,0.08-0.95,0.04-1.34-0.12
		c-0.39-0.17-0.78-0.45-1.16-0.86c-0.38-0.41-0.86-0.99-1.43-1.75l-1.87-2.45l-3.22-4.22l-2.07-2.71c0.51-0.12,0.97-0.23,1.4-0.32
		c0.43-0.09,0.8-0.2,1.12-0.3c0.52-0.19,0.96-0.37,1.34-0.53c0.38-0.16,0.81-0.38,1.28-0.68c0.47-0.3,1.05-0.69,1.74-1.18
		c0.69-0.49,1.6-1.17,2.74-2.04l26.49-20.22c1.09-0.83,1.94-1.55,2.55-2.15c0.61-0.6,1.02-1.17,1.22-1.73
		c0.21-0.56,0.23-1.12,0.06-1.69C478.68,120.77,478.38,120.11,477.96,119.38z M491.24,135.6c-1.03-1.35-2.39-1.84-4.08-1.48
		c-1.7,0.36-3.98,1.64-6.84,3.83l-2.97,2.27c-1.18,0.9-2.3,1.87-3.34,2.9c-1.05,1.03-1.83,1.91-2.34,2.64
		c-0.43,0.66-0.62,1.44-0.57,2.33c0.05,0.9,0.35,1.7,0.89,2.41c1.16,1.51,2.87,2.07,5.13,1.67c2.27-0.4,4.88-1.73,7.83-3.98
		c3.29-2.51,5.47-4.84,6.54-6.99C492.53,139.06,492.46,137.19,491.24,135.6z"/>
</g>
<path class="st0" d="M294.9,23.15c125.19,0,231.23,83.54,265.33,197.8h14.38C540.1,98.98,427.77,9.36,294.9,9.36
	S49.71,98.98,15.19,220.95h14.38C63.68,106.69,169.71,23.15,294.9,23.15z"/>
<path class="st0" d="M294.9,576.85c-124.87,0-230.67-83.1-265.06-196.9H15.45C50.26,501.46,162.36,590.64,294.9,590.64
	s244.64-89.18,279.45-210.69h-14.39C525.58,493.74,419.77,576.85,294.9,576.85z"/>
<path class="st2" d="M294.9,471.93c94.81,0,171.93-77.13,171.93-171.93S389.71,128.07,294.9,128.07
	c-94.81,0-171.93,77.13-171.93,171.93S200.1,471.93,294.9,471.93z M294.9,131.51c92.9,0,168.49,75.58,168.49,168.49
	S387.81,468.49,294.9,468.49S126.42,392.9,126.42,300S202,131.51,294.9,131.51z"/>
<path class="st1" d="M493.4,181.58c7.49,12.53,13.72,25.73,18.68,39.37h3.67c-5.1-14.26-11.57-28.05-19.39-41.14L493.4,181.58z"/>
<path class="st1" d="M474.2,451.22c17.95-21.26,31.83-45.44,41.2-71.27h-3.67c-9.22,25.01-22.75,48.42-40.16,69.05L474.2,451.22z"/>
<path class="st1" d="M118.24,448.99c-17.41-20.63-30.94-44.04-40.16-69.05h-3.67c9.36,25.83,23.25,50.01,41.2,71.27L118.24,448.99z"
	/>
<path class="st1" d="M93.45,179.81c-7.82,13.08-14.29,26.87-19.39,41.14h3.67c4.96-13.64,11.18-26.83,18.68-39.37L93.45,179.81z"/>
<path class="st2" d="M491.8,300c0-17.03-2.18-33.56-6.26-49.34v98.67C489.62,333.56,491.8,317.03,491.8,300z"/>
<path class="st2" d="M98.01,300c0,13.43,1.36,26.55,3.93,39.24v-78.47C99.36,273.45,98.01,286.57,98.01,300z"/>
<path class="st2" d="M294.9,496.9c91.54,0,168.68-62.79,190.64-147.56v-98.67c-21.95-84.77-99.1-147.56-190.64-147.56
	c-95.14,0-174.73,67.83-192.96,157.66v78.47C120.18,429.07,199.77,496.9,294.9,496.9z M294.9,116.9
	c100.96,0,183.1,82.14,183.1,183.1c0,100.96-82.14,183.1-183.1,183.1S111.8,400.96,111.8,300C111.8,199.04,193.94,116.9,294.9,116.9
	z"/>
<g>
	<path class="st3" d="M292.77,474.04c-2.42-8.48-7.82-14.61-14.83-19.57c-1.75-1.24-3.54-2.41-5.14-4.05
		c1.84,0.14,3.69,0.28,6.05,0.45c-4-4.98-8.8-8.35-13.86-11.37c0.13-0.23,0.18-0.45,0.29-0.5c1.03-0.39,2.69,0.46,3.09-0.74
		c0.39-1.17-0.98-2.13-1.79-3.03c-3.39-3.81-7.68-6.46-11.85-9.29c-1.29-0.87-2.38-0.22-3.5,0.12c-9.29,2.82-18.74,4.83-28.41,5.71
		c-5.51,0.5-10.99,0.51-16.44-0.69c-7.97-1.75-14.36-5.86-19-12.57c-0.9-1.3-1.74-1.86-3.44-1.76c-10.07,0.6-16.56-3.08-20.63-12.35
		c-5.19-11.81-9.96-23.81-14.87-35.74c-1.06-2.59-0.84-5.17,0.31-7.74c1.63-3.63,4.29-6.46,6.98-9.29
		c13.05-13.68,26.09-27.37,38.69-41.46c1.62-1.82,2.04-3.05,0.61-5.27c-2.83-4.4-4.06-9.37-3.78-14.66
		c0.05-1.02-0.03-2.12-0.35-3.08c-3.44-10.36-0.9-19.46,5.79-27.65c1.61-1.98,3.31-4.09,5.43-5.39c3.27-2,3.56-4.56,2.7-7.76
		c-0.42-1.56-0.63-3.19-1.24-4.67c-4.99-12.03-6.44-24.72-7.09-37.57c-0.54-10.72-1.2-21.44-1.8-32.15
		c-0.32-5.78-2.66-7.59-8.33-6.41c-3.3,0.69-6.26,2.19-9.07,3.99c-3.28,2.1-6.48,4.32-9.83,6.3c-4.91,2.92-10.23,4.45-16.01,4.31
		c-2.62-0.06-4.79-0.81-6.44-2.88c0.01-1.41,0.02-2.82,0.03-4.23c7.85-14.74,18.51-26.38,35.03-31.47c0.62-0.19,1.29-0.22,1.94-0.33
		c2.14-0.29,4.28-0.48,6.45-0.56c2.86-0.11,5.63,0.53,8.45,0.57c6.35,1.44,11.83,4.51,16.64,8.87
		c17.75,16.07,35.54,32.09,53.27,48.18c1.52,1.38,2.93,2.06,5.05,1.75c13.99-2.1,28.03-1.91,42.06-0.61
		c3.03,0.28,3.87-0.59,3.79-3.53c-0.17-5.9,1.89-11.18,5.29-15.93c7.87-11.01,17.41-20.3,28.8-27.67
		c10.34-6.69,21.42-8.95,33.48-6.07c19.62,4.69,36.39,14.5,50.89,28.35c3.79,3.62,6.64,7.96,8.74,12.77
		c-0.78,1.76,0.4,3.51,0.02,5.27c-3.43,3.97-8.01,3.73-12.52,3.17c-7.31-0.91-13.8-4.02-19.9-8.01c-4.68-3.06-8.91-6.7-13.16-10.32
		c-0.69-0.59-1.21-1.52-2.34-1.41c-1.58,0.05-2.02-1.94-3.53-2.02c-0.95,1.09,0.54,1.68,0.46,2.57c-1.63-0.08-1.79,0.06-1.64,2.25
		c0.06,0.93-1.91,1.87-0.3,2.51c0.97,0.39,1.68-1.26,2.52-1.96c0.78-0.65,1.35-1.62,2.54-1.63c0.02,0.57,0.04,1.14,0.06,1.71
		c-1.78,0.05-1.95,2.18-3.41,2.67c-0.13,0.04-0.24,0.51-0.17,0.71c0.15,0.38,0.54,0.55,0.92,0.39c0.99-0.4,2.02-0.33,3.05-0.33
		c0.02,0.38,0.04,0.75,0.06,1.13c-0.67,0.07-1.41,0.29-1.37,1.03c0.05,0.91,0.94,0.58,1.51,0.67c0.92,12.48,2.53,24.96,1.04,37.5
		c-0.72,6.05-3.29,11.45-6.49,16.59c-2.61,4.19-5.39,8.27-7.57,12.72c-1.82,3.7-2.32,7.43-1.59,11.57
		c4.8,27.06,18.28,49.19,38.1,67.77c6.52,6.11,13.51,11.67,20.75,16.91c0.9,0.65,2.06,1.05,2.46,2.25c0,1.02-0.01,2.03-0.01,3.05
		c-3.92,16.05-11.15,30.63-19.83,44.55c-8.83,14.17-19.28,27.07-31.01,38.94c-24.45,24.74-53.02,43.1-85.65,55.13
		c-1.3,0.48-2.25,1.76-3.8,1.6c-3.81,0.64-7.66,0.51-11.5,0.54C294.38,487.93,294.76,481.03,292.77,474.04z M198.89,285.29
		c-1.65,0.84-2.45,1.97-1.89,3.81c0.1,2.75,1.15,5.04,3.27,6.82c1.25,1.62,3.05,1.54,4.56,0.92c1.76-0.72,1.91-2.58,1.87-4.32
		c0.05-0.07,0.11-0.15,0.16-0.22c-0.12,0.01-0.24,0.02-0.36,0.02C202.35,294.42,200.04,292.34,198.89,285.29z M281.22,291.02
		c-2.18,0.55-4.11-0.2-5.49-2.01c-0.5-0.66-0.72-1.52-1.09-2.28c-0.37-0.76,0.29-2.25-1.08-2.23c-1.27,0.02-1.76,1.3-1.99,2.43
		c-0.13,0.61,0.06,1.28,0.1,1.92c1.52,4.26,4.48,6.44,8.6,6.33c4.26-0.11,8.33-3.28,9.53-7.21c0.52-1.69-0.3-2.21-1.64-2.56
		c-0.83-0.79-1.83-0.58-2.81-0.46c-0.98-0.91-2.21-0.95-3.43-0.96c-1.12-0.01-2.61-0.09-2.69,1.35c-0.07,1.34,1.19,2.09,2.48,2.31
		c0.92,0.15,1.88,0.07,2.82,0.1C284.48,289.89,282.85,290.61,281.22,291.02z M232.16,424.23c1.62-0.34,3.17-1.02,5.34-1.74
		c-3.99-1.56-7.61-1.34-11.05-1.59c-5.93-0.44-11.82-1.23-17.73-1.81c-1.27-0.12-2.65-0.47-3.85,0.44c-1.95-0.31-3.9-0.64-5.86-0.91
		c-0.86-0.12-1.91-0.11-2.31,0.69c-0.48,0.96,0.58,1.49,1.18,1.99c3.23,2.68,7.13,3.89,11.16,4.48c3.13,0.46,6.33,1.33,9.5,0.08
		C223.24,426.6,227.68,425.17,232.16,424.23z M215.08,182.49c-0.41,0.15,0.41,0.93,0.97,0.76c3.13-0.99,2.61,0.68,1.43,2.86
		c2.35-0.55,3.01-2.54,4.58-3.22c0.87,0.48,0.71,1.43,0.97,2.18c-1.22,0.15-2.56,0.15-2.72,1.86c-0.16,1.71,0.95,2.5,2.28,3.36
		c0.86-1.3-3.31-3.82,1.04-3.92c3.4,6.65,6.64,13.39,10.85,19.59c0.49,0.72,0.63,2.64,2.34,1.46c1.25-0.86,2.43-1.69,1.26-3.66
		c-7.27-12.22-14.06-24.71-20.69-37.29c-0.2-0.39-0.52-0.71-0.99-0.97c0.58,4.53,2.78,8.53,3.93,12.86
		C217.41,178.18,217.31,181.65,215.08,182.49z M163.13,389.69c0.03,0.09,0.07,0.18,0.1,0.26c1.95,6.08,4.72,11.77,8.37,16.99
		c2.62,3.74,7.65,4.71,11.7,2.69c1.63-0.81,2.06-1.89,1.19-3.42c-0.79-1.39-1.48-2.98-2.62-4.02c-5.56-5.05-11.96-8.85-18.61-12.27
		C163.22,389.84,163.17,389.76,163.13,389.69z M270.04,416.56c4.46,0.32,8.5-1.22,12.16-3.42c13.99-8.4,22.76-20.64,26.07-36.68
		c0.35-1.68,0.39-3.4-0.07-5.08c0.61-2.63-0.47-5.1-0.7-7.65c1.46,0,2.02-1.79,3.49-1.77c0.07,0.38,0.15,0.77,0.22,1.15
		c-1.25,0.51-2.33,1.35-1.82,2.76c0.59,1.63,1.78,2.89,3.74,3.02c0.96,8.28-1.37,16.1-3.43,23.95c-0.92,0.5-1.19,1.38-1.53,2.61
		c5.78-0.81,10.26-3.7,14.59-6.85c0.93-0.68,2.34-1.04,2.47-2.55c14.86-9.97,24.06-23.7,27.2-41.34
		c1.93-10.84-1.68-19.99-9.22-27.76c-0.24-0.25-0.64-0.36-0.97-0.53c-2.77-5.29-7.18-9.46-10.36-14.65c2.2-0.71,3.63,1.82,5.87,0.6
		c-5.06-4.75-10.09-9.48-14.99-14.09c-0.72,0.36-0.81,0.54-0.64,0.85c2.82,5.29,2.5,10.99,2.18,16.7
		c-0.66,11.66-1.25,23.33-1.88,34.99c-0.05,0.91-0.17,1.82-0.25,2.66c-1.08,0.16-1.37-0.57-1.78-1.01
		c-14.07-15.14-30.84-17.23-49.48-10.25c-0.71,0.27-1.51,0.44-2.1,0.88c-4.09,3.04-7.82,1.85-11.77-0.51
		c-5.27-3.15-10.08-6.77-13.97-11.55c-0.71-0.87-1.57-1.68-1.75-2.88c2.9-0.55,5.01-2.57,7.42-4.03c2.65-1.61,5.24-3.31,7.76-5.26
		c-3.44-0.05-6.49,2.04-10.49,1.75c1.72-2.2,3.44-3.91,3.48-6.73c0.09-5.57-2.76-9.58-6.29-13.22c-3.45-3.55-7.86-5.54-12.69-6.59
		c-0.59-0.13-1.18-0.28-1.61,0.15c-2.57,2.6-5.68,4.75-6.96,8.42c-6.06,3.99-11.15,9.06-16.07,14.33
		c-10.21,10.94-20.44,21.86-30.63,32.82c-1.26,1.36-2.8,2.56-3.32,4.49c-3.58,0.39-4.04,4.23-6.79,5.53
		c0.09,0.27,0.19,0.54,0.28,0.81c3.9,0,7.81-0.19,11.69,0.06c3.28,0.21,5.65-0.74,7.93-3.21c3.13-3.39,5.94-7.12,9.57-10.05
		c0.43,0.01,0.85,0.02,1.28,0.03c-2.09,3.97-5.11,7.26-7.76,10.83c-0.48,0.65-1.47,1.25-0.91,2.15c0.47,0.75,1.5,0.66,2.36,0.7
		c1.9,0.1,3.2-1.1,4.53-2.13c12.56-9.63,25.07-19.31,37.65-28.91c1.37-1.05,2.49-2.72,4.57-2.57c0.06,1.01-0.75,1.48-1.31,2.09
		c-10.08,11.07-20.17,22.14-30.26,33.2c-0.47,0.46-0.92,0.94-1.4,1.38c-1.72,1.56-1.89,2.92-0.4,5.02
		c4.75,6.71,5.66,17.09-1.18,23.46c-3.41,3.18-6.82,6.31-10.63,8.98c-0.78,0.54-1.53,1.11-2.3,1.67c-5.99,2.15-5.53,6.72-1.8,9.87
		c6.47,5.47,14.13,8.32,22.26,10.03c6.88,1.44,13.89,1.35,20.89,1.21c0.75-0.01,1.53,0.06,2.09-0.63
		c14.26,0.05,24.95-6.69,33.44-17.6c3.85-4.94,7.4-10.11,11.84-14.57c2.22-2.23,4.54-4.32,7.45-5.63
		c5.87-2.63,10.97,0.18,11.91,6.54c0.28,1.91,0.09,3.78-0.27,5.66c-0.08,0.25-0.17,0.49-0.25,0.74c-0.05,0.16-0.13,0.32-0.23,0.46
		c-1.23-1.71-0.59-4.03-1.9-6.08c-2.38,13.38-11.84,18.95-23.37,21.94c-3.64,0.94-6.69,2.24-9.2,5.02
		c-1.06,1.18-2.48,2.03-3.73,3.03c-0.91,0.61-2.04,0.96-2.73,2.36c4.14,1.27,8.13,2.37,12.38,1.08
		C268.41,416.7,269.22,416.63,270.04,416.56z M201.19,164.78c-0.8,6.9,0.15,13.73,0.43,20.57c0.29,7.18,1.07,14.34,1.55,21.52
		c0.65,9.76,2.6,19.14,7.56,27.71c0.46,0.8,0.71,1.79,2.01,2.18c3.15-6.1,7.58-11.43,11.08-17.37c1.7-1.64,3.43-3.24,5.07-4.94
		c0.74-0.77,1.34-1.71-0.13-2.5c-9.95-5.39-16.2-13.9-20.36-24.17c-0.15-0.38-0.67-0.61-1.01-0.91
		C205.74,179.38,202.77,172.29,201.19,164.78z M224.82,265.95l-0.03-0.12c1.83-1.92,1.97-4.42,2.09-6.82
		c0.05-1.07,0.12-1.92,1.37-2.68c0,2.41,0.06,4.82-0.02,7.23c-0.08,2.3,0.26,4.55,0.8,6.75c0.24,0.95,0.46,2.32,1.64,2.42
		c1.01,0.08,1.41-1.1,1.83-1.94c2.81-5.59,5.62-11.18,8.42-16.78c4.13-8.26,9.53-15.69,15.32-22.82
		c5.87-7.23,12.64-13.57,20.17-19.08c0.79-0.58,1.54-1.53,2.67-0.57c-7.6,7.58-14.37,15.81-19.91,25.03
		c-0.53,0.88-1.21,1.7-1.31,2.79c-2.1,2.01-3.31,4.66-4.57,7.15c-3.33,6.62-5.81,13.6-7.62,20.79c-0.52,2.08-0.86,4.27,0.23,6.34
		c1.22,4.24,4.23,7.07,7.67,9.48c1.72,1.2,3.52,0.87,4.68-0.95c2.58-4.05,4.73-8.4,8.61-11.5c0.85-0.68,0.71-1.89,0.89-2.92
		c0.47-2.78,1.01-5.56,1.52-8.33c1.99-1.81,3.98-3.63,5.97-5.44c0.13,0.07,0.26,0.14,0.39,0.22c-0.69,1.71-1.39,3.41-2.07,5.13
		c-0.61,1.56-0.15,2.39,1.61,2.27c2.74-0.18,5.47-0.45,8.21-0.53c3.11-0.09,3.51,0.51,2.71,3.48c-1.09,4.06-1.08,4,3.04,5.2
		c6.71,1.94,12.96,4.81,18.17,9.62c0.69,0.64,1.34,1.36,1.83,2.16c1.53,2.42,4.61,3.08,7.39,1.5c1.72-0.97,1.9-3.47,0.27-6.09
		c-4.96-7.97-9.48-16.16-12.96-24.89c-0.38-0.96-0.99-1.85-0.9-2.95l0.02-0.01c3.03,1.86,4.85,4.93,7.33,7.34
		c6.5,6.33,11.67,14.09,19.67,18.8c4.95,2.91,10.24,5.12,16.21,3.73c4.28-1,6.08-4.14,4.88-8.37c-1.61-5.68-4.52-10.66-8.66-14.85
		c-8.67-8.76-17.45-17.43-26.16-26.15c-0.71-0.71-1.65-1.27-2-2.43c1.35-0.69,2.56,0.01,3.81,0.19c0.82,0.12,1.79,0.36,2.37-0.47
		c0.5-0.71-0.05-1.43-0.28-2.15c-1.71-5.38-5.67-7.18-10.94-6.96c-4.26,0.18-8.52,0.35-12.78,0.47c-0.8,0.02-1.89,0.42-2.32-0.54
		c-0.5-1.12,0.64-1.68,1.27-2.29c1.38-1.33,3.46-1.91,4.16-3.96c2.16-0.92,4.59-1.17,6.93-2.83c-7.09-0.81-13.83,0.02-20.8,0.2
		c0.69-2.22,2.85-2.62,4.14-4.29c-9.88-0.11-19.47,0.59-28.96,2.75c-6.03,1.38-11.65,3.91-17.49,5.82
		c-0.17-0.25-0.34-0.49-0.52-0.74c0.56-0.97,1.13-1.94,1.69-2.91c-8.76,5.7-15.73,13.03-20.28,22.54c-0.94,0.03-1.28,0.78-1.56,1.46
		c-2.65,6.47-6.45,12.42-8.61,19.1c-0.41,1.27-0.8,2.52-0.71,3.87c-1.3,1.04-2.93,1.28-4.45,1.79c-4.4,1.5-7.32,4.54-9.3,8.65
		c-0.58,1.2-0.67,2.08,0.63,2.85c3.31,1.97,5.74,4.9,8.26,7.74c3.56,4,5.75,4.05,9.71,0.35c0.48-0.45,0.98-0.89,1.47-1.33
		c0.97,0.83,1.38,2.28,2.85,2.61c0.81-0.89-0.38-1.29-0.43-1.94c-0.05-0.65,0.08-1.29,0.87-0.92c4.09,1.92,0.38-1.59,1.31-1.85
		c0.97-0.47,1.42,0.84,2.6,0.62c-0.68-2.46-2.57-2.56-4.51-2.58c0.69-1.84,1.38-3.69,2.07-5.53
		C224.58,266.56,224.7,266.26,224.82,265.95z M295.46,292.42c-6.68,5.51-14.12,9.11-23.06,8.81c-1.77-0.06-3.7,0.01-4.05,2.46
		c-1.71,1.83-1.76,4.62-0.19,7.52c1.14,2.11,2.73,2.29,5.02,1.98c6.37-0.86,12.8-1.31,19.19-1.97c3.48-0.36,6.96-0.74,10.43-1.23
		c3.94-0.56,6.02-3.77,8.52-6.31c1.52-1.55,2.67-3.44,4.08-5.1c1.49-1.76,1.2-2.81-0.88-3.9c-4.38-2.3-9.15-3.01-13.9-3.89
		C298.6,290.39,297.04,291.12,295.46,292.42z M307.36,475.67c1.02,0.51,1.8-0.82,2.55-1.44c9.14-7.52,14.96-17.21,16.81-28.79
		c1.7-10.64,3.8-21.01,9.23-30.45c0.18-0.31,0.12-0.74,0.18-1.12c2.56-3.85,5.2-7.64,7.66-11.56c1.16-1.86,3.31-3.17,3.38-5.88
		c-1.28,0.15-2.07,0.99-2.97,1.58c-13.21,8.64-27.43,15.01-42.84,18.48c-4.62,1.04-8.68,2.36-11.5,6.42
		c-4.08,5.88-3.49,11.81-0.29,17.69c2.9,5.34,7.11,9.78,10.73,14.62c0.14,0.19,0.51,0.2,0.78,0.3c2.72,5.49,5.14,11.08,5.8,17.26
		C306.95,473.79,306.4,475.19,307.36,475.67z M387.91,224.55c1.94-2.34,1.59-5.22,1.9-7.95c1.23-0.44,0.94-1.51,0.96-2.42
		c0.23-11.1-0.79-22.12-2.16-33.12c-0.26-2.06-0.42-4.14-0.72-6.2c-0.32-2.16-1.34-3.43-3.67-2.22c-2.87,1.49-6.4,1.91-8.33,4.98
		c-4.99,2.58-8.06,7.14-11.36,11.36c-5.26,6.72-10.14,13.72-13.14,21.82c-0.06,0.1-0.12,0.2-0.18,0.29c0.1-0.06,0.19-0.12,0.29-0.18
		c3.55-1.65,6.53-4.39,10.51-5.38c-4.91,7.14-9.97,14.1-16.5,20.76c5.48-0.04,10.04-1.64,14.9-2.21c-0.42,2.26-2.44,2.28-3.56,3.3
		c-3.75,3.38-7.78,6.39-12.49,8.32c-1.43,0.58-1.2,1.22-0.39,2.03c3.74,3.77,7.45,7.58,11.28,11.26c1.52,1.46,3.19,0.29,4.76-0.29
		C372.79,246.99,387.29,234.22,387.91,224.55z M382.17,386.74c1.43,9.79,0.23,19.07-1.04,29.13c7.08-5.51,11.14-12.34,14.59-19.69
		c3.46-7.37,6.19-14.98,8.13-22.94c1.5,4.92,1.09,9.97,1.5,15.03c3.47-4.81,6.12-9.99,8.2-15.44c2.7-7.09,5.28-14.23,5.76-21.92
		c0.19-3.07-0.54-5.9-2.49-8.26c-5-6.04-10.1-11.99-15.78-18.71c0.03,11.45,0.69,22.14-3.01,32.57c-0.78-1.12-0.95-2.14-0.91-3.17
		c0.52-11.94-3.55-22.74-8.24-33.39c-4.17-9.46-8.49-18.86-11.89-28.65c-1.17-3.36-1.54-3.42-3.93-0.8
		c-1.02,1.12-1.92,2.35-2.93,3.48c-1.17,1.29-0.71,2.6-0.24,3.98c2.88,8.44,5.44,16.97,7.43,25.67c2.22,9.71,3.54,19.54,4.41,29.46
		c1.15,13.12,0.26,26.12-1.71,39.08c-0.08,0.54-0.01,1.1-0.01,2.07C381.37,391.78,380.82,389.25,382.17,386.74z M338.15,219.32
		c1.08-3.78-0.74-7.06-2.64-10.18c-3.16-5.21-4.69-10.74-3.53-16.86c0.76-4.03,2.58-7.55,5.11-10.69
		c6.29-7.8,13.27-14.89,21.54-20.62c11.36-7.87,21.45-7.89,33.07-0.26c6.61,4.34,12.39,9.7,18.53,14.62
		c0.41,0.33,0.71,0.97,1.63,0.46c-0.34-1.51-1.75-2.27-2.64-3.36c-4.34-5.32-9.34-9.96-14.65-14.31
		c-11.35-9.28-23.45-9.66-36.14-3.25c-8.85,4.47-15.27,11.8-21.83,18.92c-1.61,1.75-3.04,3.66-4.69,5.36
		c-7.82,8.01-9.46,17.67-7.59,28.25c1.44,8.16,4.91,15.47,9.89,22.76C335.65,226.24,337.15,222.85,338.15,219.32z M177.96,366.53
		c3.46-0.09,6.85-0.23,9.41,2.79c0.93,1.1,2.03,0.78,2.87-0.34c0.4-0.53,0.79-1.07,1.18-1.61c4.31-6,3.97-6.98-3.19-9.19
		c-3.57-1.1-7.23-1.46-10.95-1.46c-5.98,0-11.95,0.05-17.92,0.48c-3.28,0.24-4.63,1.89-5.65,4.59c-1.72,4.58-1.79,4.64,3.18,4.81
		c3.89,0.13,7.79,0.03,11.68,0.03c0-0.03,0-0.06,0-0.09C171.69,366.54,174.83,366.61,177.96,366.53z M284.3,275.83
		c-2.92-0.46-5.83-0.75-8.77-0.57c-3.66,0.22-6.17,2.38-7.25,6.16c9.88-6.62,18.92-2.32,27.76,2.26c3.01,1.56,5.93,2.2,10.02,1.94
		C298.68,281.46,292.2,277.09,284.3,275.83z M204.51,280.73c-1.77-2.74-3.58-4.28-6.47-3.91c-2.22,0.29-3.6,1.48-3.86,4.6
		C197.6,279.25,200.82,279.74,204.51,280.73z M225.61,282.62c0.58,0.56,1.11,1.48,2.13,0.78c0.75-0.51,1.29-1.29,0.98-2.19
		c-1.03-3.04-0.22-3.52,2.8-1.18c-0.69-2.2-1.61-3.52-3.15-3.36c-1.73,0.19-1.86,1.63-1.55,3.3c0.61,3.26-1.66-0.1-2.29,1.21
		C224.53,281.81,225.16,282.17,225.61,282.62z M217.75,177.03c0.37-1.42-1.28-2.42-2.74-3.07c-0.53,1.54,1.98,2.15,0.96,3.28
		c-0.96,1.06-1.49-1.11-2.78-0.86c-0.05,1.39,2.74,3-0.12,4.53C215.51,180.45,217.23,179.01,217.75,177.03z M191.94,383.33
		c-2.95,0.57-5.92,0.99-8.84,1.71C186.41,386.58,189.24,385.32,191.94,383.33z M200.32,303.22c0.71,0.57,1.34,0.65,1.9-0.21
		c0.55-0.85-0.03-1.17-0.65-1.52c-1.39-0.8-2.77-1.62-4.72-2.75C197.85,300.89,198.98,302.14,200.32,303.22z M207.41,288.14
		c0-1.08-0.69-1.78-1.8-1.7c-1,0.08-1.83,0.59-1.82,1.75c0.01,1.04,0.71,1.45,1.67,1.49C206.49,289.65,207.41,289.33,207.41,288.14z
		 M269.66,293.48c-0.58,1.48-1.44,2.77-0.61,3.72c0.97,1.1,2.16-0.2,3.68-0.41C271.61,295.58,270.75,294.66,269.66,293.48z
		 M322.28,281.76c0.16-0.13,0.24-0.64,0.15-0.71c-0.26-0.2-0.79-0.47-0.93-0.35c-1.59,1.26-3.18,2.55-3.66,4.78
		C319.33,284.25,320.82,283.03,322.28,281.76z"/>
	<path class="st2" d="M343.61,326.52c0.6,17.74-6.52,31.36-21.48,40.85c-2.83,1.8-5.99,0.65-7.13-2.52
		c-1.74-4.83-3.47-9.63-6.73-13.71c-3.14-3.93-5.58-3.98-8.56,0.06c-3.22,4.36-6.54,8.6-10.71,12.11c-0.55,0.46-1.28,0.86-1.33,1.96
		c1.75-0.03,3.21-0.98,4.78-1.42c7.46-2.09,11.33-0.47,14.98,6.35c0.22,0.41,0.51,0.79,0.77,1.18c0.46,1.69,0.42,3.4,0.07,5.08
		c-3.31,16.04-12.08,28.28-26.07,36.68c-3.66,2.2-7.7,3.74-12.16,3.42c-1.26-2.82-0.09-4.64,2.36-6.08c2.55-1.5,5.34-2.37,8.05-3.47
		c8.12-3.28,13.68-8.86,15.7-17.6c0.1-0.14,0.18-0.29,0.23-0.46c0.08-0.25,0.17-0.49,0.25-0.74c0.36-1.87,0.56-3.74,0.27-5.65
		c-0.94-6.36-6.04-9.17-11.91-6.54c-2.91,1.31-5.23,3.4-7.45,5.63c-4.44,4.46-8,9.63-11.84,14.57
		c-8.49,10.91-19.18,17.65-33.44,17.6c-6.47-0.76-12.96-1.31-19.32-2.83c0.6-1.28,1.93-1.43,3.03-1.9
		c7.34-3.13,14.59-6.4,20.75-11.63c0.93-0.79,1.76-1.68,2.44-2.94c-5.19,2.72-10.7,4.6-16.04,6.89c-4.04,0.97-8.16,1.22-12.29,1.42
		c-0.22-1.69,1.34-1.65,2.22-2.09c6.43-3.26,12.76-6.69,18.61-10.94c1.07-0.78,2.18-1.52,2.84-2.73c0.19-0.19,0.39-0.38,0.58-0.58
		c0.06-0.03,0.12-0.07,0.18-0.1c-0.05,0.04-0.1,0.09-0.15,0.13c-0.19,0.19-0.38,0.39-0.57,0.58c-1.77-0.03-2.94,1.25-4.27,2.07
		c-7.09,4.43-14.93,5.54-23.06,5.48c-0.66-0.01-1.35-0.01-1.73-0.72c3.56-1.02,6.7-2.9,10.67-4.92c-3.14-0.56-5.07,0.96-7.21,1.19
		c-2.89-1.99-3.21-3.56-1.39-6.67c1.01-1.72,2.19-3.37,2.94-5.19c3.27-7.89,1.34-15.04-3.35-21.75c-0.86-1.22-2.17-2.17-2.4-3.79
		c10.09-11.07,20.18-22.13,30.26-33.2c0.56-0.61,1.37-1.08,1.31-2.09l-0.08,0.03c0.25-0.2,0.5-0.4,0.75-0.61
		c2.43-3.14,3.02,0.34,4.34,1.21c0.18,1.2,1.05,2.01,1.75,2.88c3.89,4.78,8.69,8.4,13.97,11.55c3.95,2.36,7.68,3.55,11.77,0.51
		c0.59-0.44,1.39-0.61,2.1-0.88c18.65-6.99,35.41-4.89,49.48,10.25c0.41,0.44,0.7,1.17,1.78,1.01c0.08-0.85,0.2-1.75,0.25-2.66
		c0.63-11.66,1.22-23.33,1.88-34.99c0.32-5.71,0.64-11.41-2.18-16.7c-0.17-0.31-0.08-0.49,0.64-0.85
		c4.91,4.61,9.94,9.34,14.99,14.09c-2.24,1.23-3.68-1.3-5.87-0.6c3.18,5.19,7.59,9.36,10.36,14.65
		C342.3,319.83,343.49,323.07,343.61,326.52z M286.7,365.63l0.01,0.14l0.16-0.09L286.7,365.63z"/>
	<path class="st4" d="M278.62,218.21c6.15-5.05,13.42-6.15,20.91-6.79c-0.7,2.05-2.78,2.63-4.16,3.96
		c-0.64,0.62-1.77,1.17-1.27,2.29c0.43,0.97,1.52,0.57,2.32,0.54c4.26-0.12,8.52-0.29,12.78-0.47c5.27-0.22,9.22,1.58,10.94,6.96
		c0.23,0.72,0.77,1.44,0.28,2.15c-0.58,0.83-1.55,0.59-2.37,0.47c-1.25-0.18-2.47-0.89-3.81-0.19c0.35,1.16,1.29,1.72,2,2.43
		c8.71,8.72,17.49,17.39,26.16,26.15c4.14,4.18,7.05,9.16,8.66,14.85c1.2,4.23-0.6,7.38-4.88,8.37c-5.97,1.39-11.26-0.81-16.21-3.73
		c-8-4.71-13.17-12.47-19.67-18.8c-2.48-2.41-4.31-5.47-7.33-7.34c-0.04-0.17-0.07-0.35-0.11-0.52c-0.09,0.05-0.18,0.11-0.27,0.16
		c0.12,0.12,0.24,0.25,0.36,0.38c-0.09,1.11,0.52,1.99,0.9,2.95c3.48,8.73,8,16.92,12.96,24.89c1.63,2.62,1.45,5.12-0.27,6.09
		c-2.79,1.58-5.87,0.92-7.39-1.5c-0.5-0.79-1.14-1.52-1.83-2.16c-5.2-4.81-11.45-7.68-18.17-9.62c-4.12-1.19-4.14-1.13-3.04-5.2
		c0.8-2.97,0.4-3.56-2.71-3.48c-2.74,0.08-5.47,0.35-8.21,0.53c-1.77,0.12-2.23-0.71-1.61-2.27c0.67-1.72,1.38-3.42,2.07-5.13
		c-0.13-0.07-0.26-0.14-0.39-0.22c-1.99,1.81-3.98,3.63-5.97,5.44c0.08-1.51-0.07-3.08,0.28-4.52c0.7-2.81-0.49-2.64-2.44-1.86
		c-2.75,1.11-5.25,2.63-7.6,4.43c-0.74,0.56-1.35,1.34-2.53,1.58c-0.51-1.73,0.77-2.82,1.3-4.09c0.56-1.36,1.29-2.66,1.58-4.18
		c-6.24,6.66-10.89,14.28-13.97,22.87c-1.09-2.08-0.75-4.26-0.23-6.34c1.8-7.19,4.29-14.17,7.62-20.79
		c1.25-2.49,2.46-5.14,4.57-7.15C264.31,231.84,270.93,224.53,278.62,218.21z M260.64,250.24c0.03,0.03,0.15-0.04,0.22-0.07
		c0.24-0.11,0.24-0.26,0-0.33c-0.12-0.03-0.28,0.06-0.42,0.1C260.51,250.05,260.56,250.16,260.64,250.24z"/>
	<path class="st4" d="M380,394.25c1.37-2.47,0.82-5,2.17-7.51c1.43,9.79,0.23,19.07-1.04,29.13c7.08-5.51,11.14-12.34,14.59-19.69
		c3.46-7.37,6.19-14.98,8.13-22.94c1.5,4.92,1.09,9.97,1.5,15.03c3.47-4.81,6.12-9.99,8.2-15.44c2.7-7.09,5.28-14.23,5.76-21.92
		c0.19-3.07-0.54-5.9-2.49-8.26c-5-6.04-10.1-11.99-15.78-18.71c0.03,11.45,0.69,22.14-3.01,32.57c-0.78-1.12-0.95-2.14-0.91-3.17
		c0.52-11.94-3.55-22.74-8.24-33.39c-4.17-9.46-8.49-18.86-11.89-28.65c-1.17-3.36-1.54-3.42-3.93-0.8
		c-1.02,1.12-1.92,2.35-2.93,3.48c-1.17,1.29-0.71,2.6-0.24,3.98c2.88,8.44,5.44,16.97,7.43,25.67c2.22,9.71,3.54,19.54,4.41,29.46
		c1.15,13.12,0.26,26.12-1.71,39.08C379.93,392.72,380,393.28,380,394.25z"/>
	<path class="st4" d="M236.23,317.55c0,0,0.08-0.03,0.08-0.03c-2.08-0.14-3.2,1.53-4.57,2.57c-12.58,9.6-25.09,19.29-37.65,28.91
		c-1.33,1.02-2.63,2.23-4.53,2.13c-0.86-0.05-1.89,0.05-2.36-0.7c-0.56-0.9,0.43-1.5,0.91-2.15c2.65-3.56,5.67-6.86,7.76-10.83
		c1.04-0.84,2.2-1.58,2.62-3.39c-1.98,0.73-2.88,2.12-3.9,3.36c-3.63,2.93-6.44,6.65-9.57,10.05c-2.28,2.47-4.65,3.42-7.93,3.21
		c-3.88-0.25-7.79-0.06-11.69-0.06c-0.09-0.27-0.19-0.54-0.28-0.81c2.75-1.3,3.21-5.14,6.79-5.53c3.03,2.01,5.3,0.13,7.24-1.74
		c3.4-3.3,6.59-6.82,9.77-10.35c10.17-11.28,20.31-22.57,30.4-33.92c1.39-1.56,3.25-3.06,2.61-5.63c1.28-3.67,4.39-5.82,6.96-8.42
		c0.43-0.43,1.02-0.28,1.61-0.15c4.83,1.05,9.24,3.04,12.69,6.59c3.53,3.64,6.39,7.64,6.29,13.22c-0.05,2.82-1.76,4.53-3.48,6.73
		c4,0.29,7.05-1.8,10.49-1.75c-2.52,1.96-5.11,3.66-7.76,5.26c-2.41,1.46-4.52,3.48-7.42,4.03c-1.32-0.87-1.9-4.35-4.34-1.21
		C236.73,317.14,236.48,317.35,236.23,317.55z M199.12,332.85c-0.06,0.1-0.12,0.2-0.18,0.3c0.1-0.06,0.2-0.13,0.3-0.19
		c0.18-0.2,0.37-0.39,0.55-0.59c0.07-0.06,0.13-0.11,0.2-0.17c-0.09,0.03-0.19,0.05-0.28,0.08
		C199.51,332.48,199.32,332.66,199.12,332.85z"/>
	<path class="st4" d="M224.25,231.96c-0.94,0.03-1.28,0.78-1.56,1.46c-2.65,6.47-6.45,12.42-8.61,19.1
		c-0.41,1.27-0.8,2.52-0.71,3.87c3.51-0.9,5.67-3.8,8.58-6.17c0.22,1.63,0.29,2.87,0.55,4.06c0.85,3.83,0.38,7.93,2.28,11.55
		c1.83-1.92,1.97-4.42,2.09-6.82c0.05-1.07,0.12-1.92,1.37-2.68c0,2.41,0.06,4.82-0.02,7.23c-0.08,2.3,0.26,4.55,0.8,6.75
		c0.24,0.95,0.46,2.32,1.64,2.42c1.01,0.08,1.41-1.1,1.83-1.94c2.81-5.59,5.62-11.18,8.42-16.78c4.13-8.26,9.53-15.69,15.32-22.82
		c5.87-7.23,12.64-13.57,20.17-19.08c0.79-0.58,1.54-1.53,2.67-0.57c1.25-0.72,2.44-1.49,3.06-3.38
		c-9.95,2.52-18.77,6.47-26.98,13.44c2.13-4.64,5.36-7.37,8.12-10.75c-0.7-0.08-0.99-0.18-1.25-0.13
		c-14.34,3.01-26.73,9.44-36.31,20.79C225.46,231.84,225.19,233.37,224.25,231.96z"/>
	<path class="st5" d="M342.23,316.41c0.07,3.42,1.26,6.66,1.38,10.1c0.6,17.74-6.52,31.36-21.48,40.85
		c-2.83,1.8-5.99,0.65-7.13-2.52c-1.74-4.83-3.47-9.63-6.73-13.71c-3.14-3.93-5.58-3.98-8.56,0.06c-3.22,4.36-6.54,8.6-10.71,12.11
		c-0.55,0.46-1.28,0.86-1.33,1.96c1.75-0.03,3.21-0.98,4.78-1.42c7.46-2.09,11.33-0.47,14.98,6.35c0.22,0.41,0.51,0.79,0.77,1.18
		c0.61-2.63-0.47-5.1-0.7-7.65c-1.67-1.64-2.56-4.12-5.17-4.72c-1.28-0.02-2.57-0.04-3.85-0.05c-0.08-0.01-0.15-0.01-0.23-0.02
		c0.07-0.09,0.13-0.18,0.2-0.28c1.33-1.56,3.24-1.89,5.08-2.35c3.87,0.06,6.06,2.34,7.46,5.66c0.07,0.38,0.14,0.77,0.21,1.15
		c1.41,1.67,1.58,3.75,1.91,5.77c0.96,8.28-1.37,16.1-3.42,23.95c1.17-0.38,2.38-0.65,3.49-1.16c4.03-1.83,8.03-3.74,12.03-5.63
		c14.86-9.97,24.06-23.7,27.2-41.34c1.93-10.84-1.68-19.99-9.22-27.76C342.96,316.69,342.56,316.59,342.23,316.41z"/>
	<path class="st5" d="M375.88,177.63c-4.99,2.58-8.06,7.14-11.36,11.36c-5.26,6.72-10.14,13.72-13.14,21.82l0.11,0.11
		c3.55-1.66,6.53-4.39,10.51-5.39c-4.91,7.14-9.97,14.1-16.5,20.76c5.48-0.04,10.04-1.64,14.9-2.21c-0.42,2.26-2.44,2.28-3.56,3.3
		c-3.75,3.38-7.78,6.39-12.49,8.32c-1.43,0.58-1.2,1.22-0.39,2.03c3.74,3.77,7.45,7.58,11.28,11.26c1.52,1.46,3.19,0.29,4.76-0.29
		c-1.85-2.96-4.62-5.04-7.34-7.04c-2.3-1.69-1.66-2.51,0.21-3.83c5.45-3.83,10.37-8.3,14.77-13.31c3.14-3.57,6.39-7.08,9.46-11.64
		c-5.77,2.13-10.81,4.23-16.37,5.22c0.02-1.26,0.71-1.95,1.2-2.72c3.23-5.03,6.49-10.04,9.69-15.09c2.33-3.67,3.41-3.88,6.8-1.01
		c4.71,3.99,6.93,9.33,8.41,15.16c0.84,3.34,0.05,6.8,1.08,10.09c1.94-2.34,1.59-5.22,1.9-7.95c-0.16-9.67-1.21-19.28-1.85-28.91
		c-0.47-7.03-2.62-9.69-8.38-9.89C378.34,177.76,377.11,177.69,375.88,177.63z"/>
	<path class="st2" d="M387.91,224.55c-1.02-3.29-0.23-6.75-1.08-10.09c-1.47-5.82-3.7-11.17-8.41-15.16
		c-3.39-2.87-4.47-2.66-6.8,1.01c-3.2,5.05-6.46,10.06-9.69,15.09c-0.49,0.77-1.18,1.45-1.2,2.72c5.56-0.99,10.6-3.09,16.37-5.22
		c-3.07,4.55-6.32,8.06-9.46,11.64c-4.4,5-9.32,9.47-14.77,13.31c-1.87,1.32-2.51,2.13-0.21,3.83c2.72,2,5.49,4.08,7.34,7.04
		C372.79,246.99,387.29,234.22,387.91,224.55z"/>
	<path class="st6" d="M336.12,413.88c2.56-3.85,5.2-7.64,7.66-11.56c1.16-1.86,3.31-3.17,3.38-5.88c-1.28,0.15-2.07,0.99-2.97,1.58
		c-13.21,8.64-27.43,15.01-42.84,18.48c-4.62,1.04-8.68,2.36-11.5,6.42c-4.08,5.88-3.49,11.81-0.29,17.69
		c2.9,5.34,7.11,9.78,10.73,14.62c0.14,0.19,0.51,0.2,0.78,0.3c0.03-2.46,0.01-4.93,0.09-7.39c0.14-4.19,1.19-8.12,4.17-11.2
		c3.08-3.19,6.38-6.18,9.58-9.26c2.12-4.41,5.06-8.41,6.41-13.2c0.37-1.3,1.59-1.12,2.63-1.15
		C328.02,413.2,332.08,413.34,336.12,413.88z"/>
	<path class="st2" d="M334.19,230.17c1.46-3.93,2.95-7.32,3.96-10.85c1.08-3.78-0.74-7.06-2.64-10.18
		c-3.16-5.21-4.69-10.74-3.53-16.86c0.76-4.03,2.58-7.55,5.11-10.69c6.29-7.8,13.27-14.89,21.54-20.62
		c11.36-7.87,21.45-7.89,33.07-0.26c6.61,4.34,12.39,9.7,18.53,14.62c0.41,0.33,0.71,0.97,1.63,0.46c-0.34-1.51-1.75-2.27-2.64-3.36
		c-4.34-5.32-9.34-9.96-14.65-14.31c-11.35-9.28-23.45-9.66-36.14-3.25c-8.85,4.47-15.27,11.8-21.83,18.92
		c-1.61,1.75-3.04,3.66-4.69,5.36c-7.82,8.01-9.46,17.67-7.59,28.25C325.75,215.58,329.22,222.89,334.19,230.17z"/>
	<path class="st7" d="M224.25,231.96c0.94,1.41,1.21-0.12,1.48-0.45c9.58-11.35,21.97-17.77,36.31-20.79
		c0.26-0.05,0.55,0.05,1.25,0.13c-2.76,3.38-5.99,6.12-8.12,10.75c8.21-6.97,17.02-10.91,26.98-13.44
		c-0.62,1.89-1.81,2.66-3.06,3.38c-7.6,7.58-14.37,15.81-19.9,25.03c-0.53,0.88-1.21,1.7-1.31,2.79
		c6.43-7.52,13.06-14.84,20.75-21.16c6.15-5.05,13.42-6.15,20.91-6.79c2.16-0.92,4.59-1.17,6.93-2.83
		c-7.09-0.81-13.83,0.02-20.8,0.2c0.69-2.22,2.85-2.62,4.14-4.29c-9.88-0.11-19.47,0.59-28.96,2.75
		c-6.03,1.38-11.65,3.91-17.49,5.82c-0.24,0.04-0.58,0.19-0.7,0.09c-0.34-0.3-0.14-0.6,0.18-0.83c0.56-0.97,1.13-1.94,1.69-2.91
		C235.77,215.13,228.8,222.45,224.25,231.96z"/>
	<path class="st5" d="M336.12,413.88c-4.04-0.54-8.1-0.68-12.17-0.56c-1.03,0.03-2.26-0.15-2.63,1.15c-1.35,4.79-4.29,8.8-6.41,13.2
		c1.31,2.42,2.44,4.88,2.93,7.64c1.35,7.7-0.07,15.06-2.54,22.3c-1.9,5.56-4.36,10.81-8.42,15.17c0.07,1-0.48,2.4,0.48,2.88
		c1.02,0.51,1.8-0.82,2.55-1.44c9.14-7.52,14.96-17.21,16.81-28.79c1.7-10.64,3.8-21.01,9.23-30.45
		C336.12,414.69,336.07,414.25,336.12,413.88z"/>
	<path class="st4" d="M268.36,303.7c-1.71,1.83-1.76,4.62-0.19,7.52c1.14,2.11,2.73,2.29,5.02,1.98c6.37-0.86,12.8-1.31,19.19-1.97
		c3.48-0.36,6.96-0.74,10.43-1.23c3.94-0.56,6.02-3.77,8.52-6.31c1.52-1.55,2.67-3.44,4.08-5.1c1.49-1.76,1.2-2.81-0.88-3.9
		c-4.38-2.3-9.15-3.01-13.9-3.89C294.62,300.34,279.58,306.36,268.36,303.7z"/>
	<path class="st2" d="M306.88,472.79c4.06-4.36,6.52-9.62,8.42-15.17c2.47-7.24,3.9-14.61,2.54-22.3c-0.48-2.76-1.61-5.22-2.93-7.64
		c-3.2,3.08-6.5,6.07-9.58,9.26c-2.98,3.08-4.03,7.01-4.17,11.2c-0.08,2.46-0.06,4.93-0.09,7.39
		C303.8,461.02,306.22,466.61,306.88,472.79z"/>
	<path class="st6" d="M232.26,413.82c-6.47-0.76-12.96-1.31-19.32-2.83c-1.72-0.45-3.47-0.83-5.16-1.38
		c-0.71-0.23-2.01-0.11-1.85-1.27c0.12-0.88,1.22-0.6,1.93-0.74c5.05-1.05,10.16-1.88,15.05-3.61c1.81-0.64,2.28-1.54,0.21-2.57
		c-4.04,0.97-8.16,1.22-12.29,1.42c-1.03,0.07-2.07,0.21-3.1,0.19c-1.58-0.03-3.92,0.09-4.07-1.53c-0.1-1.18,2.42-1.05,3.84-1.34
		c4.21-0.84,8.13-2.42,11.85-4.68c-7.17,0.68-14.22,2.44-21.48,0.98c2.75-0.35,4.98-2.05,7.61-2.51c3.56-1.02,6.7-2.9,10.67-4.92
		c-3.14-0.56-5.07,0.96-7.21,1.19c-0.29,0.82-1,1.17-1.74,1.3c-3.92,0.66-7.82,1.46-11.77,1.79c-2.16,0.18-4.41,1.6-6.6,0.04
		c-5.99,2.15-5.53,6.72-1.8,9.87c6.47,5.47,14.13,8.32,22.26,10.03c6.88,1.44,13.89,1.35,20.89,1.21
		C230.92,414.43,231.7,414.51,232.26,413.82z"/>
	<path class="st2" d="M267.76,267.76c-0.17,1.02-0.04,2.24-0.89,2.92c-3.88,3.1-6.03,7.45-8.61,11.5c-1.16,1.82-2.96,2.15-4.68,0.95
		c-3.44-2.4-6.45-5.24-7.67-9.48c3.07-8.59,7.72-16.21,13.97-22.87c-0.29,1.52-1.01,2.82-1.58,4.18c-0.53,1.28-1.81,2.36-1.3,4.09
		c1.18-0.24,1.79-1.02,2.53-1.58c2.35-1.79,4.84-3.32,7.6-4.43c1.95-0.78,3.14-0.95,2.44,1.86c-0.36,1.44-0.21,3.01-0.28,4.52
		C268.77,262.21,268.24,264.98,267.76,267.76z M256.5,259.74c0.05-0.06,0.15-0.12,0.14-0.18c0-0.06-0.1-0.11-0.15-0.17
		c-0.05,0.06-0.1,0.12-0.15,0.18C256.38,259.63,256.44,259.69,256.5,259.74z"/>
	<path class="st2" d="M224.78,265.83c-1.9-3.62-1.43-7.72-2.28-11.55c-0.26-1.19-0.34-2.43-0.55-4.06
		c-2.91,2.37-5.07,5.27-8.58,6.17c-1.3,1.04-2.94,1.28-4.45,1.79c-4.4,1.5-7.32,4.54-9.3,8.65c-0.58,1.2-0.67,2.08,0.63,2.85
		c3.31,1.97,5.74,4.9,8.26,7.74c3.56,4,5.75,4.05,9.71,0.35c0.48-0.45,0.98-0.89,1.47-1.33c0.9-1.35,1.79-2.7,2.69-4.05
		c0.69-1.84,1.38-3.69,2.07-5.53c-0.08-0.39,0.01-0.71,0.36-0.92L224.78,265.83z"/>
	<path class="st5" d="M213.26,211.12c1.49,2.79,3.5,5.13,5.73,7.34c1.45,1.44,3.17,0.86,4.83,0.92
		c-3.49,5.94-7.93,11.27-11.08,17.37c-1.3-0.39-1.55-1.39-2.01-2.18c-4.96-8.57-6.91-17.95-7.56-27.71
		c-0.48-7.17-1.26-14.33-1.55-21.52c-0.28-6.84-1.22-13.67-0.43-20.57c1.59,7.51,4.56,14.6,6.19,22.08
		C207.98,195.27,209.21,203.53,213.26,211.12z M210.84,228.65c0.53,1.65,1.6,2.31,2.99,0.4c2.48-3.41,2.51-3.96-0.05-7.39
		c-2.96-3.95-5.12-8.34-6.99-12.95C207.37,215.53,208.77,222.17,210.84,228.65z M206.37,206.73c0.02-0.08,0-0.17,0-0.25
		c-0.06,0.04-0.16,0.08-0.17,0.13c-0.02,0.07,0.04,0.16,0.06,0.24C206.3,206.8,206.36,206.77,206.37,206.73z"/>
	<path class="st7" d="M168.56,366.54c3.13,0,6.27,0.06,9.4-0.02c3.46-0.09,6.85-0.23,9.41,2.79c0.93,1.1,2.03,0.78,2.87-0.34
		c0.4-0.53,0.79-1.07,1.18-1.61c4.31-6,3.97-6.98-3.19-9.19c-3.57-1.1-7.23-1.46-10.95-1.46c-5.98,0-11.95,0.05-17.92,0.48
		c-3.28,0.24-4.63,1.89-5.65,4.59c-1.72,4.58-1.79,4.64,3.18,4.81c3.89,0.13,7.79,0.03,11.68,0.03
		C168.56,366.6,168.56,366.57,168.56,366.54z"/>
	<path class="st7" d="M171.91,344.29c3.03,2.01,5.3,0.13,7.24-1.74c3.4-3.3,6.59-6.82,9.77-10.35
		c10.17-11.28,20.31-22.57,30.4-33.92c1.39-1.56,3.25-3.06,2.61-5.63c-6.06,3.99-11.15,9.06-16.07,14.33
		c-10.21,10.94-20.44,21.86-30.63,32.82C173.97,341.16,172.43,342.36,171.91,344.29z"/>
	<path class="st5" d="M188.83,393.34c2.19,1.56,4.44,0.13,6.6-0.04c3.95-0.32,7.85-1.13,11.77-1.79c0.74-0.12,1.46-0.47,1.74-1.3
		c-2.89-1.99-3.21-3.56-1.39-6.67c1.01-1.72,2.19-3.37,2.94-5.19c3.27-7.89,1.34-15.04-3.35-21.75c-0.86-1.22-2.17-2.17-2.4-3.79
		c-0.47,0.46-0.92,0.94-1.4,1.38c-1.72,1.56-1.89,2.92-0.4,5.02c4.75,6.71,5.66,17.09-1.18,23.46c-3.41,3.18-6.82,6.31-10.63,8.98
		C190.35,392.21,189.59,392.78,188.83,393.34z"/>
	<path class="st5" d="M270.04,416.56c-1.26-2.82-0.09-4.64,2.36-6.08c2.55-1.5,5.34-2.37,8.05-3.47c8.12-3.28,13.68-8.86,15.7-17.6
		c-1.23-1.71-0.59-4.03-1.9-6.08c-2.38,13.38-11.84,18.95-23.37,21.94c-3.64,0.94-6.69,2.24-9.2,5.02
		c-1.06,1.18-2.48,2.03-3.73,3.03c0.62,0.82,1.56,0.93,2.46,1.2c2.41,0.71,4.79,1.49,7.19,2.24
		C268.41,416.7,269.22,416.63,270.04,416.56z"/>
	<path class="st6" d="M207.38,186.86c0.6,8.42,1.83,16.68,5.88,24.27c1.49,2.79,3.5,5.13,5.73,7.34c1.45,1.44,3.17,0.86,4.83,0.92
		c1.7-1.64,3.44-3.24,5.07-4.94c0.74-0.77,1.34-1.71-0.13-2.5c-9.95-5.39-16.2-13.9-20.36-24.17
		C208.23,187.39,207.72,187.16,207.38,186.86z"/>
	<path class="st5" d="M163.23,389.95c1.95,6.08,4.72,11.77,8.37,16.99c2.62,3.74,7.65,4.71,11.7,2.69c1.63-0.81,2.06-1.89,1.19-3.42
		c-0.79-1.39-1.48-2.98-2.62-4.02c-5.56-5.05-11.96-8.85-18.61-12.27L163.23,389.95z"/>
	<path class="st2" d="M222.05,182.88c0.87,0.48,0.71,1.43,0.97,2.18c0.51,0.29,0.68,0.74,0.6,1.31c3.4,6.65,6.64,13.39,10.85,19.59
		c0.49,0.72,0.63,2.64,2.34,1.46c1.25-0.86,2.43-1.69,1.26-3.66c-7.27-12.22-14.06-24.71-20.69-37.29c-0.2-0.39-0.52-0.71-0.99-0.97
		c0.58,4.53,2.78,8.53,3.93,12.86C221.07,179.8,222.09,181.14,222.05,182.88z"/>
	<path class="st2" d="M306.06,285.63c-7.38-4.17-13.86-8.54-21.76-9.8c-2.92-0.46-5.83-0.75-8.77-0.57
		c-3.66,0.22-6.17,2.38-7.25,6.16c9.88-6.62,18.92-2.32,27.76,2.26C299.05,285.25,301.97,285.89,306.06,285.63z"/>
	<path class="st2" d="M268.36,303.7c11.22,2.67,26.27-3.35,32.25-12.9c-2.02-0.4-3.58,0.33-5.15,1.63
		c-6.68,5.51-14.12,9.11-23.06,8.81C270.63,301.17,268.71,301.24,268.36,303.7z"/>
	<path class="st6" d="M218.55,425.85c4.69,0.75,9.13-0.68,13.61-1.62c1.62-0.34,3.17-1.02,5.34-1.74
		c-3.99-1.56-7.61-1.34-11.05-1.59c-5.93-0.44-11.82-1.23-17.73-1.81c-1.27-0.12-2.65-0.47-3.85,0.44c0.81,0.9,2,0.96,3.04,1.33
		C211.63,422.16,215.38,423.4,218.55,425.85z"/>
	<path class="st6" d="M375.88,177.63c1.23,0.06,2.46,0.13,3.69,0.17c5.75,0.2,7.9,2.86,8.38,9.89c0.65,9.64,1.7,19.25,1.85,28.91
		c1.23-0.44,0.94-1.51,0.96-2.42c0.23-11.1-0.79-22.12-2.16-33.12c-0.26-2.06-0.42-4.14-0.72-6.2c-0.32-2.16-1.34-3.43-3.67-2.22
		C381.34,174.15,377.81,174.56,375.88,177.63z"/>
	<path class="st5" d="M218.55,425.85c-3.17-2.45-6.92-3.69-10.63-5c-1.04-0.37-2.23-0.42-3.04-1.33c-1.95-0.31-3.9-0.64-5.86-0.91
		c-0.86-0.12-1.91-0.11-2.31,0.69c-0.48,0.96,0.58,1.49,1.18,1.99c3.23,2.68,7.13,3.89,11.16,4.48
		C212.18,426.23,215.38,427.11,218.55,425.85z"/>
	<path class="st2" d="M271.68,288.85c1.52,4.26,4.48,6.44,8.6,6.33c4.26-0.11,8.33-3.28,9.53-7.21c0.52-1.69-0.3-2.21-1.64-2.56
		c-0.34,0.43-0.8,0.81-1.01,1.29c-2.78,6.34-7.88,7.54-13.19,3.03C273.28,289.16,272.59,288.77,271.68,288.85z"/>
	<path class="st5" d="M271.68,288.85c0.91-0.08,1.6,0.3,2.28,0.88c5.32,4.5,10.41,3.31,13.19-3.03c0.21-0.49,0.67-0.87,1.01-1.29
		c-0.83-0.79-1.83-0.58-2.81-0.46c-0.35,0.91-0.93,1.75-0.83,2.8c-0.06,2.15-1.69,2.86-3.31,3.27c-2.18,0.55-4.11-0.2-5.49-2.01
		c-0.5-0.66-0.72-1.52-1.09-2.28c-0.37-0.76,0.29-2.25-1.08-2.23c-1.27,0.02-1.76,1.3-1.99,2.43
		C271.45,287.53,271.63,288.21,271.68,288.85z"/>
	<path class="st6" d="M325.22,386.04c-4.01,1.88-8,3.79-12.03,5.63c-1.11,0.51-2.33,0.78-3.49,1.16c-0.93,0.51-1.19,1.38-1.53,2.61
		c5.78-0.81,10.26-3.7,14.59-6.85C323.68,387.92,325.09,387.55,325.22,386.04z"/>
	<path class="st6" d="M302.33,359c2.61,0.6,3.5,3.09,5.17,4.72c1.46,0,2.02-1.79,3.49-1.77c-1.4-3.32-3.59-5.59-7.46-5.66
		C303.13,357.2,302.73,358.1,302.33,359z"/>
	<path class="st5" d="M200.28,295.92c1.25,1.62,3.05,1.54,4.56,0.92c1.76-0.72,1.91-2.58,1.87-4.32l-0.2-0.2
		c-4.16,2.1-6.46,0.01-7.61-7.03c-1.65,0.84-2.45,1.97-1.89,3.81c1,0.34,4.95,5.03,4.93,5.93
		C201.91,296.22,200.96,295.86,200.28,295.92z"/>
	<path class="st2" d="M194.18,281.41c3.42-2.17,6.65-1.67,10.33-0.68c-1.77-2.74-3.58-4.28-6.47-3.91
		C195.81,277.1,194.44,278.29,194.18,281.41z"/>
	<path class="st3" d="M222.05,182.88c0.04-1.74-0.98-3.08-1.72-4.53c-2.92-0.17-3.02,3.3-5.25,4.14c-0.41,0.15,0.41,0.93,0.97,0.76
		c3.13-0.99,2.61,0.68,1.43,2.86C219.82,185.56,220.48,183.57,222.05,182.88z"/>
	<path class="st6" d="M267.6,416.77c-2.39-0.75-4.78-1.54-7.19-2.24c-0.9-0.26-1.84-0.38-2.46-1.2c-0.91,0.61-2.04,0.96-2.73,2.36
		C259.36,416.96,263.35,418.06,267.6,416.77z"/>
	<path class="st6" d="M222.39,272.4c-0.9,1.35-1.79,2.7-2.69,4.05c0.97,0.83,1.38,2.28,2.85,2.61c0.81-0.89-0.38-1.29-0.43-1.94
		c-0.05-0.65,0.08-1.29,0.87-0.92c4.09,1.92,0.38-1.59,1.31-1.85c0.97-0.47,1.42,0.84,2.6,0.62
		C226.21,272.52,224.33,272.42,222.39,272.4z"/>
	<path class="st3" d="M397.07,177.78c-0.01-0.57-0.03-1.14-0.04-1.71c-1.58,0.05-2.02-1.94-3.53-2.02
		c-0.95,1.09,0.54,1.68,0.46,2.57c-1.63-0.08-1.79,0.06-1.64,2.25c0.06,0.93-1.91,1.87-0.3,2.51c0.97,0.39,1.68-1.26,2.52-1.96
		C395.32,178.76,395.88,177.8,397.07,177.78z"/>
	<path class="st7" d="M284.54,287.75c-0.1-1.04,0.47-1.89,0.83-2.8c-0.98-0.91-2.21-0.95-3.43-0.96c-1.12-0.01-2.61-0.09-2.69,1.35
		c-0.07,1.34,1.19,2.09,2.48,2.31C282.64,287.81,283.6,287.72,284.54,287.75z"/>
	<path class="st6" d="M224.52,281.18c0.01,0.63,0.64,0.99,1.09,1.44c0.58,0.56,1.11,1.48,2.13,0.78c0.75-0.51,1.29-1.29,0.98-2.19
		c-1.03-3.04-0.22-3.52,2.8-1.18c-0.69-2.2-1.61-3.52-3.15-3.36c-1.73,0.19-1.86,1.63-1.55,3.3
		C227.42,283.23,225.15,279.87,224.52,281.18z"/>
	<path class="st3" d="M213.08,180.92c2.44-0.46,4.15-1.9,4.67-3.89c0.37-1.42-1.28-2.42-2.74-3.07c-0.53,1.54,1.98,2.15,0.96,3.28
		c-0.96,1.06-1.49-1.11-2.78-0.86C213.14,177.77,215.93,179.38,213.08,180.92z"/>
	<path class="st2" d="M200.28,295.92c0.68-0.07,1.63,0.3,1.66-0.89c0.02-0.9-3.93-5.58-4.93-5.93
		C197.1,291.85,198.16,294.14,200.28,295.92z"/>
	<path class="st2" d="M183.09,385.04c3.32,1.54,6.15,0.29,8.84-1.71C188.99,383.9,186.02,384.32,183.09,385.04z"/>
	<path class="st6" d="M313.12,368.88c-0.33-2.03-0.51-4.1-1.91-5.77c-1.24,0.51-2.33,1.35-1.82,2.76
		C309.97,367.5,311.17,368.75,313.12,368.88z"/>
	<path class="st2" d="M196.86,298.74c0.99,2.16,2.12,3.4,3.46,4.48c0.71,0.57,1.34,0.65,1.9-0.21c0.55-0.85-0.03-1.17-0.65-1.52
		C200.18,300.69,198.8,299.88,196.86,298.74z"/>
	<path class="st7" d="M205.46,289.68c1.03-0.04,1.95-0.35,1.95-1.54c0-1.08-0.69-1.78-1.8-1.7c-1,0.08-1.83,0.59-1.82,1.75
		C203.79,289.24,204.49,289.64,205.46,289.68z"/>
	<path class="st3" d="M397.52,182.93c0.2-1.19,0.2-2.35-0.39-3.45c-1.78,0.05-1.95,2.18-3.41,2.67c-0.13,0.04-0.24,0.51-0.17,0.71
		c0.15,0.38,0.54,0.55,0.92,0.39C395.47,182.86,396.49,182.92,397.52,182.93z"/>
	<path class="st3" d="M223.62,186.37c0.08-0.56-0.09-1.01-0.6-1.31c-1.22,0.15-2.56,0.15-2.72,1.86c-0.16,1.71,0.95,2.5,2.28,3.36
		C223.45,188.99,219.28,186.47,223.62,186.37z"/>
	<path class="st5" d="M272.73,296.79c-1.12-1.21-1.98-2.13-3.07-3.31c-0.58,1.48-1.44,2.77-0.61,3.72
		C270.01,298.3,271.21,297,272.73,296.79z"/>
	<path class="st6" d="M317.85,285.48c1.48-1.23,2.98-2.46,4.44-3.72c0.16-0.13,0.24-0.64,0.15-0.71c-0.26-0.2-0.79-0.47-0.93-0.35
		C319.92,281.97,318.33,283.25,317.85,285.48z"/>
	<path class="st6" d="M195.87,337.46c1.04-0.84,2.2-1.58,2.62-3.39c-1.98,0.73-2.88,2.12-3.9,3.36
		C195.02,337.44,195.44,337.45,195.87,337.46z"/>
	<path class="st3" d="M397.72,185.75c0.2-0.58,0.12-1.15-0.14-1.69c-0.67,0.07-1.41,0.29-1.37,1.03
		C396.26,185.99,397.14,185.66,397.72,185.75z"/>
	<path class="st4" d="M224.82,265.95c-0.35,0.22-0.44,0.54-0.36,0.92C224.58,266.56,224.7,266.26,224.82,265.95z"/>
	<path class="st5" d="M296.38,388.95c0.08-0.25,0.17-0.49,0.25-0.74C296.55,388.46,296.47,388.71,296.38,388.95z"/>
	<path class="st5" d="M163.26,389.92c-0.04-0.08-0.09-0.15-0.13-0.23c0.03,0.09,0.07,0.18,0.1,0.26
		C163.23,389.95,163.26,389.92,163.26,389.92z"/>
	<path class="st5" d="M206.71,292.52c0.05-0.07,0.11-0.15,0.16-0.22c-0.12,0.01-0.24,0.02-0.36,0.02
		C206.51,292.33,206.71,292.52,206.71,292.52z"/>
	<path class="st5" d="M351.38,210.82c-0.06,0.1-0.12,0.2-0.18,0.29c0.1-0.06,0.19-0.12,0.29-0.18
		C351.49,210.93,351.38,210.82,351.38,210.82z"/>
	<path class="st5" d="M205.48,393.94c-2.63,0.46-4.85,2.17-7.61,2.51c7.26,1.46,14.31-0.3,21.48-0.98
		c-3.72,2.26-7.64,3.85-11.85,4.68c-1.42,0.28-3.94,0.16-3.84,1.34c0.14,1.61,2.49,1.49,4.07,1.53c1.03,0.02,2.06-0.12,3.1-0.19
		c-0.22-1.69,1.34-1.65,2.22-2.09c6.43-3.26,12.76-6.69,18.61-10.94c1.07-0.78,2.18-1.52,2.84-2.73c0,0,0.04,0.04,0.04,0.04
		c-1.77-0.03-2.94,1.25-4.27,2.07c-7.09,4.43-14.93,5.54-23.06,5.48C206.55,394.65,205.87,394.65,205.48,393.94z"/>
	<path class="st5" d="M223.12,401.41c2.07,1.03,1.6,1.93-0.21,2.57c-4.89,1.73-10,2.56-15.05,3.61c-0.71,0.15-1.81-0.14-1.93,0.74
		c-0.16,1.16,1.14,1.04,1.85,1.27c1.69,0.55,3.44,0.93,5.16,1.38c0.6-1.28,1.93-1.43,3.03-1.9c7.34-3.13,14.59-6.4,20.75-11.63
		c0.93-0.79,1.76-1.68,2.44-2.94C233.97,397.25,228.46,399.13,223.12,401.41z"/>
	<path class="st5" d="M235.09,386.5c0.06-0.03,0.12-0.07,0.18-0.1c-0.05,0.04-0.1,0.09-0.15,0.13L235.09,386.5z"/>
	<path class="st5" d="M235.12,386.53c-0.19,0.19-0.38,0.39-0.57,0.58c0,0-0.04-0.04-0.04-0.04c0.19-0.19,0.39-0.38,0.58-0.58
		C235.09,386.5,235.12,386.53,235.12,386.53z"/>
	<path class="st3" d="M236.98,316.94c-0.25,0.2-0.5,0.4-0.75,0.61C236.48,317.35,236.73,317.14,236.98,316.94z"/>
	<polygon class="st5" points="286.87,365.69 286.7,365.63 286.71,365.78 	"/>
	<path class="st2" d="M260.44,249.94c0.07,0.11,0.12,0.23,0.2,0.3c0.03,0.03,0.15-0.04,0.22-0.07c0.24-0.11,0.24-0.26,0-0.33
		C260.74,249.8,260.59,249.9,260.44,249.94z"/>
	<path class="st3" d="M302.97,249.07c-0.04-0.17-0.07-0.35-0.11-0.52c-0.09,0.05-0.18,0.11-0.27,0.16c0.12,0.12,0.24,0.25,0.36,0.38
		C302.95,249.08,302.97,249.07,302.97,249.07z"/>
	<path class="st6" d="M199.12,332.85c-0.06,0.1-0.12,0.2-0.18,0.3c0.1-0.06,0.2-0.13,0.3-0.19
		C199.23,332.96,199.12,332.85,199.12,332.85z"/>
	<path class="st6" d="M199.7,332.29c-0.19,0.19-0.39,0.37-0.58,0.56c0,0,0.11,0.11,0.11,0.11c0.19-0.19,0.37-0.39,0.56-0.58
		L199.7,332.29z"/>
	<path class="st6" d="M199.79,332.38c0.07-0.06,0.13-0.11,0.2-0.17c-0.09,0.03-0.19,0.05-0.28,0.08
		C199.7,332.29,199.79,332.38,199.79,332.38z"/>
	<path class="st3" d="M302.33,359c0.4-0.9,0.8-1.8,1.2-2.7c-1.84,0.46-3.75,0.79-5.08,2.35c0.01,0.1,0.02,0.2,0.03,0.3
		C299.76,358.96,301.04,358.98,302.33,359z"/>
	<path class="st6" d="M298.47,358.94c-0.01-0.1-0.02-0.2-0.03-0.3c-0.07,0.09-0.13,0.18-0.2,0.28
		C298.32,358.93,298.4,358.94,298.47,358.94z"/>
	<path class="st3" d="M242.84,212.34c-0.32,0.23-0.52,0.53-0.18,0.83c0.11,0.1,0.46-0.05,0.7-0.09
		C243.18,212.83,243.01,212.58,242.84,212.34z"/>
	<path class="st4" d="M256.33,259.58c0.05,0.06,0.11,0.11,0.17,0.17c0.05-0.06,0.15-0.12,0.14-0.18c0-0.06-0.1-0.11-0.15-0.17
		C256.43,259.45,256.38,259.51,256.33,259.58z"/>
	<path class="st2" d="M206.8,208.71c0.57,6.82,1.97,13.46,4.04,19.95c0.53,1.65,1.6,2.31,2.99,0.4c2.48-3.41,2.51-3.96-0.05-7.39
		C210.83,217.7,208.67,213.32,206.8,208.71z"/>
	<path class="st2" d="M206.26,206.84c0.04-0.04,0.1-0.07,0.11-0.11c0.02-0.08,0-0.17,0-0.25c-0.06,0.04-0.16,0.08-0.17,0.13
		C206.18,206.67,206.23,206.76,206.26,206.84z"/>
</g>
</svg>
